%FSLAX34Y34*%
%MOMM*%
%LNSMDMASK_BOTTOM*%
G71*
G01*
%ADD10R,3.400X1.600*%
%ADD11R,0.700X0.900*%
%ADD12R,1.600X2.000*%
%ADD13R,0.900X0.800*%
%ADD14R,0.900X0.700*%
%ADD15R,1.800X1.200*%
%ADD16R,0.600X1.200*%
%ADD17R,2.000X1.600*%
%LPD*%
X398500Y-450500D02*
G54D10*
D03*
X398500Y-424000D02*
G54D10*
D03*
X323500Y-450500D02*
G54D10*
D03*
X323500Y-424000D02*
G54D10*
D03*
X779890Y-548554D02*
G54D11*
D03*
X762887Y-548553D02*
G54D11*
D03*
X726000Y-548500D02*
G54D11*
D03*
X743003Y-548500D02*
G54D11*
D03*
X651000Y-548500D02*
G54D11*
D03*
X668003Y-548500D02*
G54D11*
D03*
X576000Y-548500D02*
G54D11*
D03*
X593003Y-548500D02*
G54D11*
D03*
X501000Y-548500D02*
G54D11*
D03*
X518004Y-548500D02*
G54D11*
D03*
X426000Y-548500D02*
G54D11*
D03*
X443004Y-548500D02*
G54D11*
D03*
X351000Y-548500D02*
G54D11*
D03*
X368004Y-548500D02*
G54D11*
D03*
X276000Y-548500D02*
G54D11*
D03*
X293003Y-548500D02*
G54D11*
D03*
X828000Y-126500D02*
G54D11*
D03*
X811000Y-126495D02*
G54D11*
D03*
X770500Y-126500D02*
G54D11*
D03*
X787500Y-126505D02*
G54D11*
D03*
X696000Y-126500D02*
G54D11*
D03*
X713000Y-126505D02*
G54D11*
D03*
X621000Y-126500D02*
G54D11*
D03*
X638000Y-126505D02*
G54D11*
D03*
X546000Y-126500D02*
G54D11*
D03*
X563000Y-126505D02*
G54D11*
D03*
X471500Y-126500D02*
G54D11*
D03*
X488500Y-126505D02*
G54D11*
D03*
X397000Y-126500D02*
G54D11*
D03*
X414000Y-126505D02*
G54D11*
D03*
X321500Y-126500D02*
G54D11*
D03*
X338500Y-126505D02*
G54D11*
D03*
X279500Y-126500D02*
G54D11*
D03*
X296500Y-126505D02*
G54D11*
D03*
X64000Y-419500D02*
G54D12*
D03*
X36003Y-419498D02*
G54D12*
D03*
X68500Y-315500D02*
G54D12*
D03*
X40497Y-315500D02*
G54D12*
D03*
X117500Y-529000D02*
G54D13*
D03*
X117496Y-549000D02*
G54D13*
D03*
X92896Y-539001D02*
G54D13*
D03*
X146500Y-549000D02*
G54D14*
D03*
X146500Y-532000D02*
G54D14*
D03*
X132500Y-532000D02*
G54D14*
D03*
X132498Y-548995D02*
G54D14*
D03*
X15500Y-606000D02*
G54D15*
D03*
X15500Y-576000D02*
G54D15*
D03*
X164000Y-508000D02*
G54D13*
D03*
X163999Y-487997D02*
G54D13*
D03*
X188600Y-498000D02*
G54D13*
D03*
X174500Y-549000D02*
G54D14*
D03*
X174501Y-532003D02*
G54D14*
D03*
X99000Y-337500D02*
G54D14*
D03*
X99000Y-354500D02*
G54D14*
D03*
X83500Y-122000D02*
G54D11*
D03*
X100500Y-122000D02*
G54D11*
D03*
X143081Y-322253D02*
G54D14*
D03*
X143080Y-305247D02*
G54D14*
D03*
X160081Y-322253D02*
G54D14*
D03*
X160080Y-305247D02*
G54D14*
D03*
X178081Y-322253D02*
G54D14*
D03*
X178080Y-305247D02*
G54D14*
D03*
X147081Y-177253D02*
G54D14*
D03*
X147081Y-194253D02*
G54D14*
D03*
X144081Y-224253D02*
G54D14*
D03*
X144081Y-207253D02*
G54D14*
D03*
X99000Y-383000D02*
G54D14*
D03*
X98999Y-366009D02*
G54D14*
D03*
X184190Y-191730D02*
G54D14*
D03*
X184188Y-174733D02*
G54D14*
D03*
X170190Y-191730D02*
G54D14*
D03*
X170188Y-174733D02*
G54D14*
D03*
X184188Y-163733D02*
G54D14*
D03*
X184190Y-146727D02*
G54D14*
D03*
X170188Y-163733D02*
G54D14*
D03*
X170190Y-146727D02*
G54D14*
D03*
X160500Y-549000D02*
G54D14*
D03*
X160498Y-532005D02*
G54D14*
D03*
X168000Y-590000D02*
G54D14*
D03*
X168003Y-607003D02*
G54D14*
D03*
X143000Y-590000D02*
G54D14*
D03*
X143003Y-607003D02*
G54D14*
D03*
X117500Y-590000D02*
G54D14*
D03*
X117503Y-606998D02*
G54D14*
D03*
X80000Y-520000D02*
G54D11*
D03*
X62994Y-519995D02*
G54D11*
D03*
X909000Y-67500D02*
G54D11*
D03*
X926004Y-67497D02*
G54D11*
D03*
X937500Y-91000D02*
G54D14*
D03*
X937504Y-108004D02*
G54D14*
D03*
X924500Y-91000D02*
G54D14*
D03*
X924503Y-108004D02*
G54D14*
D03*
X909000Y-54500D02*
G54D11*
D03*
X926003Y-54497D02*
G54D11*
D03*
X732000Y-33000D02*
G54D11*
D03*
X714996Y-33003D02*
G54D11*
D03*
X695500Y-36500D02*
G54D11*
D03*
X678496Y-36503D02*
G54D11*
D03*
X933000Y-225000D02*
G54D14*
D03*
X932996Y-207996D02*
G54D14*
D03*
X954000Y-250000D02*
G54D14*
D03*
X954003Y-267004D02*
G54D14*
D03*
G36*
X944500Y-219000D02*
X950500Y-219000D01*
X950500Y-231000D01*
X944500Y-231000D01*
X944500Y-219000D01*
G37*
X947500Y-201188D02*
G54D16*
D03*
X957026Y-225001D02*
G54D16*
D03*
G36*
X954025Y-195188D02*
X960025Y-195187D01*
X960025Y-207187D01*
X954025Y-207188D01*
X954025Y-195188D01*
G37*
X966550Y-225000D02*
G54D16*
D03*
X966550Y-201188D02*
G54D16*
D03*
X941000Y-267000D02*
G54D14*
D03*
X940997Y-249995D02*
G54D14*
D03*
X954000Y-368000D02*
G54D11*
D03*
X936997Y-368003D02*
G54D11*
D03*
G36*
X949499Y-332500D02*
X955499Y-332500D01*
X955499Y-344500D01*
X949499Y-344500D01*
X949499Y-332500D01*
G37*
X952499Y-314688D02*
G54D16*
D03*
G36*
X959025Y-332501D02*
X965025Y-332501D01*
X965026Y-344501D01*
X959026Y-344501D01*
X959025Y-332501D01*
G37*
G36*
X959025Y-308688D02*
X965025Y-308688D01*
X965025Y-320688D01*
X959025Y-320688D01*
X959025Y-308688D01*
G37*
X971549Y-338500D02*
G54D16*
D03*
G36*
X968549Y-308688D02*
X974549Y-308688D01*
X974550Y-320688D01*
X968550Y-320688D01*
X968549Y-308688D01*
G37*
X966000Y-394000D02*
G54D14*
D03*
X965996Y-376995D02*
G54D14*
D03*
X957000Y-239000D02*
G54D11*
D03*
X939996Y-239002D02*
G54D11*
D03*
X978000Y-221000D02*
G54D14*
D03*
X977996Y-203996D02*
G54D14*
D03*
X966000Y-367500D02*
G54D14*
D03*
X965998Y-350496D02*
G54D14*
D03*
X938000Y-338500D02*
G54D14*
D03*
X937996Y-321496D02*
G54D14*
D03*
X982500Y-334250D02*
G54D14*
D03*
X982496Y-317246D02*
G54D14*
D03*
X773500Y-451500D02*
G54D17*
D03*
X773498Y-423494D02*
G54D17*
D03*
X698500Y-451500D02*
G54D17*
D03*
X698498Y-423494D02*
G54D17*
D03*
X473500Y-450500D02*
G54D10*
D03*
X548500Y-450500D02*
G54D10*
D03*
X623500Y-450500D02*
G54D10*
D03*
X473500Y-424000D02*
G54D10*
D03*
X548500Y-424000D02*
G54D10*
D03*
X623500Y-424000D02*
G54D10*
D03*
X62000Y-585000D02*
G54D11*
D03*
X44994Y-584995D02*
G54D11*
D03*
M02*
