%FSLAX34Y34*%
%MOMM*%
%LNSOLDERMASK_BOTTOM*%
G71*
G01*
%ADD10C,1.800*%
%ADD11C,2.800*%
%ADD12C,2.100*%
%ADD13R,3.600X1.800*%
%ADD14R,0.900X1.100*%
%ADD15C,2.900*%
%ADD16C,2.400*%
%ADD17R,1.800X2.200*%
%ADD18R,1.100X1.000*%
%ADD19R,1.100X0.900*%
%ADD20C,2.100*%
%ADD21R,2.000X1.400*%
%ADD22C,0.600*%
%ADD23C,2.900*%
%ADD24C,2.600*%
%ADD25C,1.300*%
%ADD26R,0.800X1.400*%
%ADD27R,2.200X1.800*%
%LPD*%
X352839Y-250641D02*
G54D10*
D03*
X302039Y-250641D02*
G54D10*
D03*
X352839Y-228641D02*
G54D10*
D03*
X302039Y-228641D02*
G54D10*
D03*
X352839Y-206641D02*
G54D10*
D03*
X302039Y-206641D02*
G54D10*
D03*
X352839Y-174641D02*
G54D10*
D03*
X302039Y-174641D02*
G54D10*
D03*
X427839Y-250641D02*
G54D10*
D03*
X377039Y-250641D02*
G54D10*
D03*
X427839Y-228641D02*
G54D10*
D03*
X377039Y-228641D02*
G54D10*
D03*
X427839Y-206641D02*
G54D10*
D03*
X377039Y-206641D02*
G54D10*
D03*
X427839Y-174641D02*
G54D10*
D03*
X377039Y-174641D02*
G54D10*
D03*
X502839Y-250641D02*
G54D10*
D03*
X452039Y-250641D02*
G54D10*
D03*
X502839Y-228641D02*
G54D10*
D03*
X452039Y-228641D02*
G54D10*
D03*
X502839Y-206641D02*
G54D10*
D03*
X452039Y-206641D02*
G54D10*
D03*
X502839Y-174641D02*
G54D10*
D03*
X452039Y-174641D02*
G54D10*
D03*
X577839Y-250641D02*
G54D10*
D03*
X527039Y-250641D02*
G54D10*
D03*
X577839Y-228641D02*
G54D10*
D03*
X527039Y-228641D02*
G54D10*
D03*
X577839Y-206641D02*
G54D10*
D03*
X527039Y-206641D02*
G54D10*
D03*
X577839Y-174641D02*
G54D10*
D03*
X527039Y-174641D02*
G54D10*
D03*
X652839Y-250641D02*
G54D10*
D03*
X602039Y-250641D02*
G54D10*
D03*
X652839Y-228641D02*
G54D10*
D03*
X602039Y-228641D02*
G54D10*
D03*
X652839Y-206641D02*
G54D10*
D03*
X602039Y-206641D02*
G54D10*
D03*
X652839Y-174641D02*
G54D10*
D03*
X602039Y-174641D02*
G54D10*
D03*
X727839Y-250641D02*
G54D10*
D03*
X677039Y-250641D02*
G54D10*
D03*
X727839Y-228641D02*
G54D10*
D03*
X677039Y-228641D02*
G54D10*
D03*
X727839Y-206641D02*
G54D10*
D03*
X677039Y-206641D02*
G54D10*
D03*
X727839Y-174641D02*
G54D10*
D03*
X677039Y-174641D02*
G54D10*
D03*
X802839Y-250641D02*
G54D10*
D03*
X752039Y-250641D02*
G54D10*
D03*
X802839Y-228641D02*
G54D10*
D03*
X752039Y-228641D02*
G54D10*
D03*
X802839Y-206641D02*
G54D10*
D03*
X752039Y-206641D02*
G54D10*
D03*
X802839Y-174641D02*
G54D10*
D03*
X752039Y-174641D02*
G54D10*
D03*
X448300Y-426000D02*
G54D10*
D03*
X499100Y-426000D02*
G54D10*
D03*
X448300Y-448000D02*
G54D10*
D03*
X499100Y-448000D02*
G54D10*
D03*
X448300Y-470000D02*
G54D10*
D03*
X499100Y-470000D02*
G54D10*
D03*
X448300Y-502000D02*
G54D10*
D03*
X499100Y-502000D02*
G54D10*
D03*
X373100Y-426000D02*
G54D10*
D03*
X423900Y-426000D02*
G54D10*
D03*
X373100Y-448000D02*
G54D10*
D03*
X423900Y-448000D02*
G54D10*
D03*
X373100Y-470000D02*
G54D10*
D03*
X423900Y-470000D02*
G54D10*
D03*
X373100Y-502000D02*
G54D10*
D03*
X423900Y-502000D02*
G54D10*
D03*
X298100Y-426000D02*
G54D10*
D03*
X348900Y-426000D02*
G54D10*
D03*
X298100Y-448000D02*
G54D10*
D03*
X348900Y-448000D02*
G54D10*
D03*
X298100Y-470000D02*
G54D10*
D03*
X348900Y-470000D02*
G54D10*
D03*
X298100Y-502000D02*
G54D10*
D03*
X348900Y-502000D02*
G54D10*
D03*
X884500Y-386500D02*
G54D11*
D03*
X946000Y-386500D02*
G54D11*
D03*
X884500Y-286500D02*
G54D11*
D03*
X946000Y-286500D02*
G54D11*
D03*
X914500Y-261500D02*
G54D12*
D03*
X822999Y-425999D02*
G54D10*
D03*
X873799Y-425999D02*
G54D10*
D03*
X822999Y-447999D02*
G54D10*
D03*
X873799Y-447999D02*
G54D10*
D03*
X822999Y-469999D02*
G54D10*
D03*
X873799Y-469999D02*
G54D10*
D03*
X822999Y-501999D02*
G54D10*
D03*
X873799Y-501999D02*
G54D10*
D03*
X673000Y-426000D02*
G54D10*
D03*
X723800Y-426000D02*
G54D10*
D03*
X673000Y-448000D02*
G54D10*
D03*
X723800Y-448000D02*
G54D10*
D03*
X673000Y-470000D02*
G54D10*
D03*
X723800Y-470000D02*
G54D10*
D03*
X673000Y-502000D02*
G54D10*
D03*
X723800Y-502000D02*
G54D10*
D03*
X598000Y-426000D02*
G54D10*
D03*
X648800Y-426000D02*
G54D10*
D03*
X598000Y-448000D02*
G54D10*
D03*
X648800Y-448000D02*
G54D10*
D03*
X598000Y-470000D02*
G54D10*
D03*
X648800Y-470000D02*
G54D10*
D03*
X598000Y-502000D02*
G54D10*
D03*
X648800Y-502000D02*
G54D10*
D03*
X523000Y-426000D02*
G54D10*
D03*
X573800Y-426000D02*
G54D10*
D03*
X523000Y-448000D02*
G54D10*
D03*
X573800Y-448000D02*
G54D10*
D03*
X523000Y-470000D02*
G54D10*
D03*
X573800Y-470000D02*
G54D10*
D03*
X523000Y-502000D02*
G54D10*
D03*
X573800Y-502000D02*
G54D10*
D03*
X748000Y-426000D02*
G54D10*
D03*
X798800Y-426000D02*
G54D10*
D03*
X748000Y-448000D02*
G54D10*
D03*
X798800Y-448000D02*
G54D10*
D03*
X748000Y-470000D02*
G54D10*
D03*
X798800Y-470000D02*
G54D10*
D03*
X748000Y-502000D02*
G54D10*
D03*
X798800Y-502000D02*
G54D10*
D03*
X398500Y-450500D02*
G54D13*
D03*
X398500Y-424000D02*
G54D13*
D03*
X323500Y-450500D02*
G54D13*
D03*
X323500Y-424000D02*
G54D13*
D03*
X779890Y-548554D02*
G54D14*
D03*
X762887Y-548553D02*
G54D14*
D03*
X726000Y-548500D02*
G54D14*
D03*
X743003Y-548500D02*
G54D14*
D03*
X651000Y-548500D02*
G54D14*
D03*
X668003Y-548500D02*
G54D14*
D03*
X576000Y-548500D02*
G54D14*
D03*
X593003Y-548500D02*
G54D14*
D03*
X501000Y-548500D02*
G54D14*
D03*
X518004Y-548500D02*
G54D14*
D03*
X426000Y-548500D02*
G54D14*
D03*
X443004Y-548500D02*
G54D14*
D03*
X351000Y-548500D02*
G54D14*
D03*
X368004Y-548500D02*
G54D14*
D03*
X276000Y-548500D02*
G54D14*
D03*
X293003Y-548500D02*
G54D14*
D03*
X828000Y-126500D02*
G54D14*
D03*
X811000Y-126495D02*
G54D14*
D03*
X770500Y-126500D02*
G54D14*
D03*
X787500Y-126505D02*
G54D14*
D03*
X696000Y-126500D02*
G54D14*
D03*
X713000Y-126505D02*
G54D14*
D03*
X621000Y-126500D02*
G54D14*
D03*
X638000Y-126505D02*
G54D14*
D03*
X546000Y-126500D02*
G54D14*
D03*
X563000Y-126505D02*
G54D14*
D03*
X471500Y-126500D02*
G54D14*
D03*
X488500Y-126505D02*
G54D14*
D03*
X397000Y-126500D02*
G54D14*
D03*
X414000Y-126505D02*
G54D14*
D03*
X321500Y-126500D02*
G54D14*
D03*
X338500Y-126505D02*
G54D14*
D03*
X279500Y-126500D02*
G54D14*
D03*
X296500Y-126505D02*
G54D14*
D03*
G36*
X144500Y-586000D02*
X144500Y-564000D01*
X166500Y-564000D01*
X166500Y-586000D01*
X144500Y-586000D01*
G37*
G36*
X141000Y-564000D02*
X141000Y-586000D01*
X119000Y-586000D01*
X119000Y-564000D01*
X141000Y-564000D01*
G37*
X55871Y-52090D02*
G54D15*
D03*
X55871Y-122090D02*
G54D15*
D03*
X30871Y-66090D02*
G54D16*
D03*
X30871Y-109091D02*
G54D16*
D03*
X64000Y-419500D02*
G54D17*
D03*
X36003Y-419498D02*
G54D17*
D03*
X68500Y-315500D02*
G54D17*
D03*
X40497Y-315500D02*
G54D17*
D03*
X121942Y-251907D02*
G54D12*
D03*
X121942Y-276907D02*
G54D12*
D03*
X121942Y-301907D02*
G54D12*
D03*
X123000Y-111500D02*
G54D12*
D03*
X123000Y-86500D02*
G54D12*
D03*
X123000Y-61500D02*
G54D12*
D03*
X117500Y-529000D02*
G54D18*
D03*
X117496Y-549000D02*
G54D18*
D03*
X92896Y-539001D02*
G54D18*
D03*
X146500Y-549000D02*
G54D19*
D03*
X146500Y-532000D02*
G54D19*
D03*
X132500Y-532000D02*
G54D19*
D03*
X132498Y-548995D02*
G54D19*
D03*
X116563Y-474965D02*
G54D20*
D03*
X91163Y-474964D02*
G54D20*
D03*
X65763Y-474964D02*
G54D20*
D03*
X141963Y-474964D02*
G54D20*
D03*
X41363Y-474965D02*
G54D20*
D03*
X15500Y-606000D02*
G54D21*
D03*
X15500Y-576000D02*
G54D21*
D03*
X164000Y-508000D02*
G54D18*
D03*
X163999Y-487997D02*
G54D18*
D03*
X188600Y-498000D02*
G54D18*
D03*
X174500Y-549000D02*
G54D19*
D03*
X174501Y-532003D02*
G54D19*
D03*
X99000Y-337500D02*
G54D19*
D03*
X99000Y-354500D02*
G54D19*
D03*
X83500Y-122000D02*
G54D14*
D03*
X100500Y-122000D02*
G54D14*
D03*
X143081Y-322253D02*
G54D19*
D03*
X143080Y-305247D02*
G54D19*
D03*
X160081Y-322253D02*
G54D19*
D03*
X160080Y-305247D02*
G54D19*
D03*
X178081Y-322253D02*
G54D19*
D03*
X178080Y-305247D02*
G54D19*
D03*
X147081Y-177253D02*
G54D19*
D03*
X147081Y-194253D02*
G54D19*
D03*
X144081Y-224253D02*
G54D19*
D03*
X144081Y-207253D02*
G54D19*
D03*
X99000Y-383000D02*
G54D19*
D03*
X98999Y-366009D02*
G54D19*
D03*
X184190Y-191730D02*
G54D19*
D03*
X184188Y-174733D02*
G54D19*
D03*
X170190Y-191730D02*
G54D19*
D03*
X170188Y-174733D02*
G54D19*
D03*
X184188Y-163733D02*
G54D19*
D03*
X184190Y-146727D02*
G54D19*
D03*
X170188Y-163733D02*
G54D19*
D03*
X170190Y-146727D02*
G54D19*
D03*
X296989Y-351159D02*
G54D16*
D03*
X356989Y-326159D02*
G54D16*
D03*
X371989Y-351159D02*
G54D16*
D03*
X431989Y-326159D02*
G54D16*
D03*
X445989Y-351159D02*
G54D16*
D03*
X505989Y-326159D02*
G54D16*
D03*
X520989Y-351159D02*
G54D16*
D03*
X580989Y-326159D02*
G54D16*
D03*
X595989Y-351159D02*
G54D16*
D03*
X655989Y-326159D02*
G54D16*
D03*
X671989Y-351159D02*
G54D16*
D03*
X731989Y-326159D02*
G54D16*
D03*
X745489Y-351159D02*
G54D16*
D03*
X805489Y-326159D02*
G54D16*
D03*
G54D22*
G75*
G01X50007Y-549158D02*
G03X50007Y-560158I0J-5500D01*
G01*
G54D22*
G75*
G01X62007Y-560158D02*
G03X62007Y-549158I0J5500D01*
G01*
G54D22*
X50007Y-549158D02*
X62007Y-549158D01*
G54D22*
X62007Y-560158D02*
X50007Y-560158D01*
G54D22*
G75*
G01X50007Y-636158D02*
G03X50007Y-647158I0J-5500D01*
G01*
G54D22*
G75*
G01X62007Y-647158D02*
G03X62007Y-636158I0J5500D01*
G01*
G54D22*
X50007Y-636158D02*
X62007Y-636158D01*
G54D22*
X62007Y-647158D02*
X50007Y-647158D01*
G54D22*
G75*
G01X8307Y-549158D02*
G03X8307Y-560158I0J-5500D01*
G01*
G54D22*
G75*
G01X18307Y-560158D02*
G03X18307Y-549158I0J5500D01*
G01*
G54D22*
X8307Y-549158D02*
X18307Y-549158D01*
G54D22*
X18307Y-560158D02*
X8307Y-560158D01*
G54D22*
G75*
G01X8307Y-636158D02*
G03X8307Y-647158I0J-5500D01*
G01*
G54D22*
G75*
G01X18307Y-647158D02*
G03X18307Y-636158I0J5500D01*
G01*
G54D22*
X8307Y-636158D02*
X18307Y-636158D01*
G54D22*
X18307Y-647158D02*
X8307Y-647158D01*
X160500Y-549000D02*
G54D19*
D03*
X160498Y-532005D02*
G54D19*
D03*
G36*
X115500Y-564000D02*
X115500Y-586000D01*
X93500Y-586000D01*
X93500Y-564000D01*
X115500Y-564000D01*
G37*
G36*
X192000Y-564000D02*
X192000Y-586000D01*
X170000Y-586000D01*
X170000Y-564000D01*
X192000Y-564000D01*
G37*
X168000Y-590000D02*
G54D19*
D03*
X168003Y-607003D02*
G54D19*
D03*
X143000Y-590000D02*
G54D19*
D03*
X143003Y-607003D02*
G54D19*
D03*
X117500Y-590000D02*
G54D19*
D03*
X117503Y-606998D02*
G54D19*
D03*
X792000Y-388000D02*
G54D12*
D03*
X834000Y-64500D02*
G54D23*
D03*
X834000Y-601500D02*
G54D23*
D03*
X314000Y-601500D02*
G54D23*
D03*
X314000Y-64500D02*
G54D23*
D03*
G36*
X87000Y-156000D02*
X109000Y-156000D01*
X109000Y-178000D01*
X87000Y-178000D01*
X87000Y-156000D01*
G37*
G36*
X86990Y-181390D02*
X108990Y-181390D01*
X108990Y-203390D01*
X86990Y-203390D01*
X86990Y-181390D01*
G37*
X977989Y-113546D02*
G54D24*
D03*
X943990Y-58145D02*
G54D24*
D03*
X977990Y-55485D02*
G54D24*
D03*
X905993Y-113343D02*
G54D24*
D03*
X883980Y-105364D02*
G54D24*
D03*
X888988Y-58046D02*
G54D24*
D03*
X949640Y-439490D02*
G54D11*
D03*
X907000Y-439000D02*
G54D11*
D03*
X80000Y-520000D02*
G54D14*
D03*
X62994Y-519995D02*
G54D14*
D03*
X909000Y-67500D02*
G54D14*
D03*
X926004Y-67497D02*
G54D14*
D03*
X937500Y-91000D02*
G54D19*
D03*
X937504Y-108004D02*
G54D19*
D03*
X194000Y-422500D02*
G54D25*
D03*
X186500Y-393500D02*
G54D25*
D03*
X186500Y-402500D02*
G54D25*
D03*
X924500Y-91000D02*
G54D19*
D03*
X924503Y-108004D02*
G54D19*
D03*
X909000Y-54500D02*
G54D14*
D03*
X926003Y-54497D02*
G54D14*
D03*
X732000Y-33000D02*
G54D14*
D03*
X714996Y-33003D02*
G54D14*
D03*
X695500Y-36500D02*
G54D14*
D03*
X678496Y-36503D02*
G54D14*
D03*
X933000Y-225000D02*
G54D19*
D03*
X932996Y-207996D02*
G54D19*
D03*
X954000Y-250000D02*
G54D19*
D03*
X954003Y-267004D02*
G54D19*
D03*
G36*
X943500Y-218000D02*
X951500Y-218000D01*
X951500Y-232000D01*
X943500Y-232000D01*
X943500Y-218000D01*
G37*
X947500Y-201188D02*
G54D26*
D03*
X957026Y-225001D02*
G54D26*
D03*
G36*
X953025Y-194188D02*
X961025Y-194187D01*
X961025Y-208187D01*
X953025Y-208188D01*
X953025Y-194188D01*
G37*
X966550Y-225000D02*
G54D26*
D03*
X966550Y-201188D02*
G54D26*
D03*
X941000Y-267000D02*
G54D19*
D03*
X940997Y-249995D02*
G54D19*
D03*
X954000Y-368000D02*
G54D14*
D03*
X936997Y-368003D02*
G54D14*
D03*
G36*
X948499Y-331500D02*
X956499Y-331500D01*
X956499Y-345500D01*
X948499Y-345500D01*
X948499Y-331500D01*
G37*
X952499Y-314688D02*
G54D26*
D03*
G36*
X958025Y-331501D02*
X966025Y-331501D01*
X966026Y-345501D01*
X958026Y-345501D01*
X958025Y-331501D01*
G37*
G36*
X958025Y-307688D02*
X966025Y-307688D01*
X966025Y-321688D01*
X958025Y-321688D01*
X958025Y-307688D01*
G37*
X971549Y-338500D02*
G54D26*
D03*
G36*
X967549Y-307688D02*
X975549Y-307688D01*
X975550Y-321688D01*
X967550Y-321688D01*
X967549Y-307688D01*
G37*
X966000Y-394000D02*
G54D19*
D03*
X965996Y-376995D02*
G54D19*
D03*
X957000Y-239000D02*
G54D14*
D03*
X939996Y-239002D02*
G54D14*
D03*
X978000Y-221000D02*
G54D19*
D03*
X977996Y-203996D02*
G54D19*
D03*
X966000Y-367500D02*
G54D19*
D03*
X965998Y-350496D02*
G54D19*
D03*
X938000Y-338500D02*
G54D19*
D03*
X937996Y-321496D02*
G54D19*
D03*
X982500Y-334250D02*
G54D19*
D03*
X982496Y-317246D02*
G54D19*
D03*
X773500Y-451500D02*
G54D27*
D03*
X773498Y-423494D02*
G54D27*
D03*
X698500Y-451500D02*
G54D27*
D03*
X698498Y-423494D02*
G54D27*
D03*
X473500Y-450500D02*
G54D13*
D03*
X548500Y-450500D02*
G54D13*
D03*
X623500Y-450500D02*
G54D13*
D03*
X473500Y-424000D02*
G54D13*
D03*
X548500Y-424000D02*
G54D13*
D03*
X623500Y-424000D02*
G54D13*
D03*
X62000Y-585000D02*
G54D14*
D03*
X44994Y-584995D02*
G54D14*
D03*
M02*
