%FSLAX34Y34*%
%MOMM*%
%LNSOLDERMASK_TOP*%
G71*
G01*
%ADD10C,1.800*%
%ADD11C,2.800*%
%ADD12C,2.100*%
%ADD13R,1.400X0.800*%
%ADD14R,1.100X0.900*%
%ADD15C,2.900*%
%ADD16C,2.400*%
%ADD17R,0.960X1.400*%
%ADD18R,2.850X2.850*%
%ADD19R,0.800X0.430*%
%ADD20R,0.430X0.800*%
%ADD21R,1.800X1.200*%
%ADD22R,0.900X1.100*%
%ADD23R,0.700X1.200*%
%ADD24R,1.200X0.700*%
%ADD25C,1.400*%
%ADD26R,1.400X0.500*%
%ADD27R,5.600X5.100*%
%ADD28C,2.900*%
%ADD29C,2.600*%
%ADD30C,2.800*%
%ADD31R,2.200X1.800*%
%ADD32R,0.750X1.700*%
%ADD33R,1.700X0.750*%
%ADD34C,1.300*%
%ADD35R,1.100X1.000*%
%ADD36R,1.300X4.100*%
%ADD37R,1.800X2.200*%
%ADD38R,3.220X2.180*%
%ADD39C,0.600*%
%ADD40R,1.000X0.550*%
%ADD41R,0.550X1.000*%
%ADD42R,1.650X0.650*%
%LPD*%
X352839Y-250641D02*
G54D10*
D03*
X302039Y-250641D02*
G54D10*
D03*
X352839Y-228641D02*
G54D10*
D03*
X302039Y-228641D02*
G54D10*
D03*
X352839Y-206641D02*
G54D10*
D03*
X302039Y-206641D02*
G54D10*
D03*
X352839Y-174641D02*
G54D10*
D03*
X302039Y-174641D02*
G54D10*
D03*
X427839Y-250641D02*
G54D10*
D03*
X377039Y-250641D02*
G54D10*
D03*
X427839Y-228641D02*
G54D10*
D03*
X377039Y-228641D02*
G54D10*
D03*
X427839Y-206641D02*
G54D10*
D03*
X377039Y-206641D02*
G54D10*
D03*
X427839Y-174641D02*
G54D10*
D03*
X377039Y-174641D02*
G54D10*
D03*
X502839Y-250641D02*
G54D10*
D03*
X452039Y-250641D02*
G54D10*
D03*
X502839Y-228641D02*
G54D10*
D03*
X452039Y-228641D02*
G54D10*
D03*
X502839Y-206641D02*
G54D10*
D03*
X452039Y-206641D02*
G54D10*
D03*
X502839Y-174641D02*
G54D10*
D03*
X452039Y-174641D02*
G54D10*
D03*
X577839Y-250641D02*
G54D10*
D03*
X527039Y-250641D02*
G54D10*
D03*
X577839Y-228641D02*
G54D10*
D03*
X527039Y-228641D02*
G54D10*
D03*
X577839Y-206641D02*
G54D10*
D03*
X527039Y-206641D02*
G54D10*
D03*
X577839Y-174641D02*
G54D10*
D03*
X527039Y-174641D02*
G54D10*
D03*
X652839Y-250641D02*
G54D10*
D03*
X602039Y-250641D02*
G54D10*
D03*
X652839Y-228641D02*
G54D10*
D03*
X602039Y-228641D02*
G54D10*
D03*
X652839Y-206641D02*
G54D10*
D03*
X602039Y-206641D02*
G54D10*
D03*
X652839Y-174641D02*
G54D10*
D03*
X602039Y-174641D02*
G54D10*
D03*
X727839Y-250641D02*
G54D10*
D03*
X677039Y-250641D02*
G54D10*
D03*
X727839Y-228641D02*
G54D10*
D03*
X677039Y-228641D02*
G54D10*
D03*
X727839Y-206641D02*
G54D10*
D03*
X677039Y-206641D02*
G54D10*
D03*
X727839Y-174641D02*
G54D10*
D03*
X677039Y-174641D02*
G54D10*
D03*
X802839Y-250641D02*
G54D10*
D03*
X752039Y-250641D02*
G54D10*
D03*
X802839Y-228641D02*
G54D10*
D03*
X752039Y-228641D02*
G54D10*
D03*
X802839Y-206641D02*
G54D10*
D03*
X752039Y-206641D02*
G54D10*
D03*
X802839Y-174641D02*
G54D10*
D03*
X752039Y-174641D02*
G54D10*
D03*
X448300Y-426000D02*
G54D10*
D03*
X499100Y-426000D02*
G54D10*
D03*
X448300Y-448000D02*
G54D10*
D03*
X499100Y-448000D02*
G54D10*
D03*
X448300Y-470000D02*
G54D10*
D03*
X499100Y-470000D02*
G54D10*
D03*
X448300Y-502000D02*
G54D10*
D03*
X499100Y-502000D02*
G54D10*
D03*
X373100Y-426000D02*
G54D10*
D03*
X423900Y-426000D02*
G54D10*
D03*
X373100Y-448000D02*
G54D10*
D03*
X423900Y-448000D02*
G54D10*
D03*
X373100Y-470000D02*
G54D10*
D03*
X423900Y-470000D02*
G54D10*
D03*
X373100Y-502000D02*
G54D10*
D03*
X423900Y-502000D02*
G54D10*
D03*
X298100Y-426000D02*
G54D10*
D03*
X348900Y-426000D02*
G54D10*
D03*
X298100Y-448000D02*
G54D10*
D03*
X348900Y-448000D02*
G54D10*
D03*
X298100Y-470000D02*
G54D10*
D03*
X348900Y-470000D02*
G54D10*
D03*
X298100Y-502000D02*
G54D10*
D03*
X348900Y-502000D02*
G54D10*
D03*
X884500Y-386500D02*
G54D11*
D03*
X946000Y-386500D02*
G54D11*
D03*
X884500Y-286500D02*
G54D11*
D03*
X946000Y-286500D02*
G54D11*
D03*
X914500Y-261500D02*
G54D12*
D03*
X822999Y-425999D02*
G54D10*
D03*
X873799Y-425999D02*
G54D10*
D03*
X822999Y-447999D02*
G54D10*
D03*
X873799Y-447999D02*
G54D10*
D03*
X822999Y-469999D02*
G54D10*
D03*
X873799Y-469999D02*
G54D10*
D03*
X822999Y-501999D02*
G54D10*
D03*
X873799Y-501999D02*
G54D10*
D03*
X673000Y-426000D02*
G54D10*
D03*
X723800Y-426000D02*
G54D10*
D03*
X673000Y-448000D02*
G54D10*
D03*
X723800Y-448000D02*
G54D10*
D03*
X673000Y-470000D02*
G54D10*
D03*
X723800Y-470000D02*
G54D10*
D03*
X673000Y-502000D02*
G54D10*
D03*
X723800Y-502000D02*
G54D10*
D03*
X598000Y-426000D02*
G54D10*
D03*
X648800Y-426000D02*
G54D10*
D03*
X598000Y-448000D02*
G54D10*
D03*
X648800Y-448000D02*
G54D10*
D03*
X598000Y-470000D02*
G54D10*
D03*
X648800Y-470000D02*
G54D10*
D03*
X598000Y-502000D02*
G54D10*
D03*
X648800Y-502000D02*
G54D10*
D03*
X523000Y-426000D02*
G54D10*
D03*
X573800Y-426000D02*
G54D10*
D03*
X523000Y-448000D02*
G54D10*
D03*
X573800Y-448000D02*
G54D10*
D03*
X523000Y-470000D02*
G54D10*
D03*
X573800Y-470000D02*
G54D10*
D03*
X523000Y-502000D02*
G54D10*
D03*
X573800Y-502000D02*
G54D10*
D03*
X748000Y-426000D02*
G54D10*
D03*
X798800Y-426000D02*
G54D10*
D03*
X748000Y-448000D02*
G54D10*
D03*
X798800Y-448000D02*
G54D10*
D03*
X748000Y-470000D02*
G54D10*
D03*
X798800Y-470000D02*
G54D10*
D03*
X748000Y-502000D02*
G54D10*
D03*
X798800Y-502000D02*
G54D10*
D03*
X823259Y-529194D02*
G54D13*
D03*
X799447Y-529194D02*
G54D13*
D03*
X823260Y-538720D02*
G54D13*
D03*
X799447Y-538719D02*
G54D13*
D03*
X823259Y-548244D02*
G54D13*
D03*
X799447Y-548244D02*
G54D13*
D03*
X780577Y-547428D02*
G54D14*
D03*
X780580Y-530430D02*
G54D14*
D03*
X841577Y-547428D02*
G54D14*
D03*
X841580Y-530430D02*
G54D14*
D03*
X748259Y-529194D02*
G54D13*
D03*
X724447Y-529194D02*
G54D13*
D03*
X748260Y-538720D02*
G54D13*
D03*
X724447Y-538719D02*
G54D13*
D03*
X748259Y-548244D02*
G54D13*
D03*
X724447Y-548244D02*
G54D13*
D03*
X705577Y-547428D02*
G54D14*
D03*
X705580Y-530430D02*
G54D14*
D03*
X766577Y-547428D02*
G54D14*
D03*
X766580Y-530430D02*
G54D14*
D03*
X673259Y-529194D02*
G54D13*
D03*
X649447Y-529194D02*
G54D13*
D03*
X673260Y-538720D02*
G54D13*
D03*
X649447Y-538719D02*
G54D13*
D03*
X673259Y-548244D02*
G54D13*
D03*
X649447Y-548244D02*
G54D13*
D03*
X630577Y-547428D02*
G54D14*
D03*
X630580Y-530430D02*
G54D14*
D03*
X691577Y-547428D02*
G54D14*
D03*
X691580Y-530430D02*
G54D14*
D03*
X598259Y-529194D02*
G54D13*
D03*
X574447Y-529194D02*
G54D13*
D03*
X598260Y-538720D02*
G54D13*
D03*
X574447Y-538719D02*
G54D13*
D03*
X598259Y-548244D02*
G54D13*
D03*
X574447Y-548244D02*
G54D13*
D03*
X555577Y-547428D02*
G54D14*
D03*
X555580Y-530430D02*
G54D14*
D03*
X616577Y-547428D02*
G54D14*
D03*
X616580Y-530430D02*
G54D14*
D03*
X523259Y-529194D02*
G54D13*
D03*
X499447Y-529194D02*
G54D13*
D03*
X523260Y-538720D02*
G54D13*
D03*
X499447Y-538719D02*
G54D13*
D03*
X523259Y-548244D02*
G54D13*
D03*
X499447Y-548244D02*
G54D13*
D03*
X480577Y-547428D02*
G54D14*
D03*
X480580Y-530430D02*
G54D14*
D03*
X541577Y-547428D02*
G54D14*
D03*
X541580Y-530430D02*
G54D14*
D03*
X448259Y-529194D02*
G54D13*
D03*
X424447Y-529194D02*
G54D13*
D03*
X448260Y-538720D02*
G54D13*
D03*
X424447Y-538719D02*
G54D13*
D03*
X448259Y-548244D02*
G54D13*
D03*
X424447Y-548244D02*
G54D13*
D03*
X405577Y-547428D02*
G54D14*
D03*
X405580Y-530430D02*
G54D14*
D03*
X466577Y-547428D02*
G54D14*
D03*
X466580Y-530430D02*
G54D14*
D03*
X373259Y-529194D02*
G54D13*
D03*
X349447Y-529194D02*
G54D13*
D03*
X373260Y-538720D02*
G54D13*
D03*
X349447Y-538719D02*
G54D13*
D03*
X373259Y-548244D02*
G54D13*
D03*
X349447Y-548244D02*
G54D13*
D03*
X330577Y-547428D02*
G54D14*
D03*
X330580Y-530430D02*
G54D14*
D03*
X391577Y-547428D02*
G54D14*
D03*
X391580Y-530430D02*
G54D14*
D03*
X298259Y-529194D02*
G54D13*
D03*
X274447Y-529194D02*
G54D13*
D03*
X298260Y-538717D02*
G54D13*
D03*
X274447Y-538719D02*
G54D13*
D03*
X298259Y-548244D02*
G54D13*
D03*
X274447Y-548244D02*
G54D13*
D03*
X255577Y-547428D02*
G54D14*
D03*
X255580Y-530430D02*
G54D14*
D03*
X316577Y-547428D02*
G54D14*
D03*
X316580Y-530430D02*
G54D14*
D03*
X802435Y-146190D02*
G54D13*
D03*
X826248Y-146190D02*
G54D13*
D03*
X802440Y-136660D02*
G54D13*
D03*
X826248Y-136665D02*
G54D13*
D03*
X802435Y-127140D02*
G54D13*
D03*
X826248Y-127140D02*
G54D13*
D03*
X845117Y-127956D02*
G54D14*
D03*
X845120Y-144960D02*
G54D14*
D03*
X784117Y-127956D02*
G54D14*
D03*
X784120Y-144960D02*
G54D14*
D03*
X727435Y-146190D02*
G54D13*
D03*
X751248Y-146190D02*
G54D13*
D03*
X727440Y-136660D02*
G54D13*
D03*
X751248Y-136665D02*
G54D13*
D03*
X727435Y-127140D02*
G54D13*
D03*
X751248Y-127140D02*
G54D13*
D03*
X770117Y-127956D02*
G54D14*
D03*
X770120Y-144960D02*
G54D14*
D03*
X709117Y-127956D02*
G54D14*
D03*
X709120Y-144960D02*
G54D14*
D03*
X652435Y-146190D02*
G54D13*
D03*
X676248Y-146190D02*
G54D13*
D03*
X652440Y-136660D02*
G54D13*
D03*
X676248Y-136665D02*
G54D13*
D03*
X652435Y-127140D02*
G54D13*
D03*
X676248Y-127140D02*
G54D13*
D03*
X695117Y-127956D02*
G54D14*
D03*
X695120Y-144960D02*
G54D14*
D03*
X634117Y-127956D02*
G54D14*
D03*
X634120Y-144960D02*
G54D14*
D03*
X577435Y-145490D02*
G54D13*
D03*
X601248Y-145490D02*
G54D13*
D03*
X577440Y-135960D02*
G54D13*
D03*
X601248Y-135965D02*
G54D13*
D03*
X577435Y-126440D02*
G54D13*
D03*
X601248Y-126440D02*
G54D13*
D03*
X620117Y-127756D02*
G54D14*
D03*
X620120Y-144760D02*
G54D14*
D03*
X559117Y-127256D02*
G54D14*
D03*
X559120Y-144260D02*
G54D14*
D03*
X502435Y-145590D02*
G54D13*
D03*
X526248Y-145590D02*
G54D13*
D03*
X502440Y-136060D02*
G54D13*
D03*
X526248Y-136065D02*
G54D13*
D03*
X502435Y-126540D02*
G54D13*
D03*
X526248Y-126540D02*
G54D13*
D03*
X545117Y-127356D02*
G54D14*
D03*
X545120Y-144360D02*
G54D14*
D03*
X484117Y-127356D02*
G54D14*
D03*
X484120Y-144360D02*
G54D14*
D03*
X427435Y-145590D02*
G54D13*
D03*
X451248Y-145590D02*
G54D13*
D03*
X427440Y-136060D02*
G54D13*
D03*
X451248Y-136065D02*
G54D13*
D03*
X427435Y-126540D02*
G54D13*
D03*
X451248Y-126540D02*
G54D13*
D03*
X470117Y-127356D02*
G54D14*
D03*
X470120Y-144360D02*
G54D14*
D03*
X409117Y-127356D02*
G54D14*
D03*
X409120Y-144360D02*
G54D14*
D03*
X352435Y-145490D02*
G54D13*
D03*
X376248Y-145490D02*
G54D13*
D03*
X352440Y-135960D02*
G54D13*
D03*
X376248Y-135965D02*
G54D13*
D03*
X352435Y-126440D02*
G54D13*
D03*
X376248Y-126440D02*
G54D13*
D03*
X395117Y-127256D02*
G54D14*
D03*
X395120Y-144260D02*
G54D14*
D03*
X334117Y-127256D02*
G54D14*
D03*
X334120Y-144260D02*
G54D14*
D03*
X277135Y-145490D02*
G54D13*
D03*
X300948Y-145490D02*
G54D13*
D03*
X277140Y-135960D02*
G54D13*
D03*
X300948Y-135965D02*
G54D13*
D03*
X277135Y-126440D02*
G54D13*
D03*
X300948Y-126440D02*
G54D13*
D03*
X319817Y-127256D02*
G54D14*
D03*
X319820Y-144260D02*
G54D14*
D03*
X258817Y-127256D02*
G54D14*
D03*
X258820Y-144260D02*
G54D14*
D03*
G36*
X144500Y-586000D02*
X144500Y-564000D01*
X166500Y-564000D01*
X166500Y-586000D01*
X144500Y-586000D01*
G37*
G36*
X141000Y-564000D02*
X141000Y-586000D01*
X119000Y-586000D01*
X119000Y-564000D01*
X141000Y-564000D01*
G37*
X55871Y-52090D02*
G54D15*
D03*
X55871Y-122090D02*
G54D15*
D03*
X30871Y-66090D02*
G54D16*
D03*
X30871Y-109091D02*
G54D16*
D03*
X48713Y-330637D02*
G54D17*
D03*
X61413Y-330637D02*
G54D17*
D03*
X74113Y-330637D02*
G54D17*
D03*
X86713Y-330637D02*
G54D17*
D03*
X48510Y-390640D02*
G54D17*
D03*
X61213Y-390637D02*
G54D17*
D03*
X73910Y-390640D02*
G54D17*
D03*
X86513Y-390637D02*
G54D17*
D03*
G36*
X42821Y-341191D02*
X92721Y-341190D01*
X92721Y-379990D01*
X42821Y-379991D01*
X42821Y-341191D01*
G37*
X121942Y-251907D02*
G54D12*
D03*
X121942Y-276907D02*
G54D12*
D03*
X121942Y-301907D02*
G54D12*
D03*
X123000Y-111500D02*
G54D12*
D03*
X123000Y-86500D02*
G54D12*
D03*
X123000Y-61500D02*
G54D12*
D03*
X114915Y-513297D02*
G54D18*
D03*
X61500Y-405000D02*
G54D14*
D03*
X61500Y-422004D02*
G54D14*
D03*
X74875Y-305267D02*
G54D14*
D03*
X74875Y-288267D02*
G54D14*
D03*
X55303Y-314395D02*
G54D14*
D03*
X55303Y-297395D02*
G54D14*
D03*
X159508Y-390507D02*
G54D19*
D03*
X159508Y-394507D02*
G54D19*
D03*
X159509Y-398507D02*
G54D19*
D03*
X159508Y-402507D02*
G54D19*
D03*
X159508Y-406507D02*
G54D19*
D03*
X159508Y-410507D02*
G54D19*
D03*
X159508Y-414507D02*
G54D19*
D03*
X159508Y-418507D02*
G54D19*
D03*
X159508Y-422507D02*
G54D19*
D03*
X159508Y-426507D02*
G54D19*
D03*
X209208Y-390507D02*
G54D19*
D03*
X209208Y-394507D02*
G54D19*
D03*
X209209Y-398507D02*
G54D19*
D03*
X209208Y-402507D02*
G54D19*
D03*
X209208Y-406507D02*
G54D19*
D03*
X209208Y-410507D02*
G54D19*
D03*
X209208Y-414507D02*
G54D19*
D03*
X209208Y-418507D02*
G54D19*
D03*
X209208Y-422507D02*
G54D19*
D03*
X209208Y-426507D02*
G54D19*
D03*
X202537Y-383562D02*
G54D20*
D03*
X198537Y-383562D02*
G54D20*
D03*
X194537Y-383562D02*
G54D20*
D03*
X190537Y-383562D02*
G54D20*
D03*
X186537Y-383562D02*
G54D20*
D03*
X182540Y-383557D02*
G54D20*
D03*
X178537Y-383562D02*
G54D20*
D03*
X174537Y-383562D02*
G54D20*
D03*
X170537Y-383562D02*
G54D20*
D03*
X166537Y-383562D02*
G54D20*
D03*
X202200Y-432994D02*
G54D20*
D03*
X198200Y-432994D02*
G54D20*
D03*
X194200Y-432994D02*
G54D20*
D03*
X190200Y-432997D02*
G54D20*
D03*
X186200Y-432994D02*
G54D20*
D03*
X182200Y-432994D02*
G54D20*
D03*
X178200Y-432994D02*
G54D20*
D03*
X174200Y-432994D02*
G54D20*
D03*
X170200Y-432994D02*
G54D20*
D03*
X166200Y-432994D02*
G54D20*
D03*
X185716Y-235856D02*
G54D14*
D03*
X185714Y-218853D02*
G54D14*
D03*
X199716Y-235856D02*
G54D14*
D03*
X199716Y-218856D02*
G54D14*
D03*
X97855Y-244257D02*
G54D21*
D03*
X97855Y-218057D02*
G54D21*
D03*
X143081Y-322253D02*
G54D14*
D03*
X143080Y-305250D02*
G54D14*
D03*
X160081Y-322253D02*
G54D14*
D03*
X160080Y-305250D02*
G54D14*
D03*
X178081Y-322253D02*
G54D14*
D03*
X178080Y-305250D02*
G54D14*
D03*
X195122Y-306212D02*
G54D22*
D03*
X212130Y-306207D02*
G54D22*
D03*
X218000Y-201000D02*
G54D23*
D03*
X111000Y-333000D02*
G54D24*
D03*
G36*
X105005Y-336502D02*
X117005Y-336502D01*
X117005Y-343502D01*
X105005Y-343502D01*
X105005Y-336502D01*
G37*
X225000Y-201000D02*
G54D23*
D03*
X296989Y-351159D02*
G54D16*
D03*
X356989Y-326159D02*
G54D16*
D03*
X371989Y-351159D02*
G54D16*
D03*
X431989Y-326159D02*
G54D16*
D03*
X445989Y-351159D02*
G54D16*
D03*
X505989Y-326159D02*
G54D16*
D03*
X520989Y-351159D02*
G54D16*
D03*
X580989Y-326159D02*
G54D16*
D03*
X595989Y-351159D02*
G54D16*
D03*
X655989Y-326159D02*
G54D16*
D03*
X671989Y-351159D02*
G54D16*
D03*
X731989Y-326159D02*
G54D16*
D03*
X745489Y-351159D02*
G54D16*
D03*
X805489Y-326159D02*
G54D16*
D03*
X50039Y-569134D02*
G54D25*
D03*
X50039Y-627134D02*
G54D25*
D03*
X62040Y-566130D02*
G54D13*
D03*
X62040Y-630130D02*
G54D13*
D03*
X62039Y-574134D02*
G54D13*
D03*
X62039Y-622134D02*
G54D13*
D03*
X62039Y-580634D02*
G54D26*
D03*
X62039Y-615634D02*
G54D26*
D03*
X62018Y-585649D02*
G54D26*
D03*
X61990Y-610664D02*
G54D26*
D03*
X61990Y-590703D02*
G54D26*
D03*
X62023Y-605641D02*
G54D26*
D03*
X61988Y-595694D02*
G54D26*
D03*
X62023Y-600716D02*
G54D26*
D03*
X956501Y-496380D02*
G54D27*
D03*
G36*
X115500Y-564000D02*
X115500Y-586000D01*
X93500Y-586000D01*
X93500Y-564000D01*
X115500Y-564000D01*
G37*
G36*
X192000Y-564000D02*
X192000Y-586000D01*
X170000Y-586000D01*
X170000Y-564000D01*
X192000Y-564000D01*
G37*
X45000Y-180000D02*
G54D27*
D03*
X792000Y-388000D02*
G54D12*
D03*
X834000Y-64500D02*
G54D28*
D03*
X834000Y-601500D02*
G54D28*
D03*
X314000Y-601500D02*
G54D28*
D03*
X314000Y-64500D02*
G54D28*
D03*
G36*
X87000Y-156000D02*
X109000Y-156000D01*
X109000Y-178000D01*
X87000Y-178000D01*
X87000Y-156000D01*
G37*
G36*
X86990Y-181390D02*
X108990Y-181390D01*
X108990Y-203390D01*
X86990Y-203390D01*
X86990Y-181390D01*
G37*
X977989Y-113546D02*
G54D29*
D03*
X943990Y-58145D02*
G54D29*
D03*
X977990Y-55485D02*
G54D29*
D03*
X905993Y-113343D02*
G54D29*
D03*
X883980Y-105364D02*
G54D29*
D03*
X193580Y-251757D02*
G54D22*
D03*
X210580Y-251750D02*
G54D22*
D03*
X193580Y-265757D02*
G54D22*
D03*
X210580Y-265750D02*
G54D22*
D03*
X161582Y-251753D02*
G54D22*
D03*
X178580Y-251757D02*
G54D22*
D03*
X161582Y-265753D02*
G54D22*
D03*
X178580Y-265757D02*
G54D22*
D03*
X157941Y-155926D02*
G54D30*
D03*
X184688Y-155733D02*
G54D30*
D03*
X888988Y-58046D02*
G54D29*
D03*
X949640Y-439490D02*
G54D11*
D03*
X907000Y-439000D02*
G54D11*
D03*
X968000Y-296000D02*
G54D31*
D03*
X968000Y-324003D02*
G54D31*
D03*
X968000Y-377500D02*
G54D31*
D03*
X967998Y-349494D02*
G54D31*
D03*
X142568Y-467760D02*
G54D32*
D03*
X142568Y-353760D02*
G54D32*
D03*
X150568Y-467760D02*
G54D32*
D03*
X150568Y-353760D02*
G54D32*
D03*
X158568Y-467760D02*
G54D32*
D03*
X158568Y-353760D02*
G54D32*
D03*
X166568Y-467760D02*
G54D32*
D03*
X166568Y-353760D02*
G54D32*
D03*
X174568Y-467760D02*
G54D32*
D03*
X174568Y-353760D02*
G54D32*
D03*
X182568Y-467760D02*
G54D32*
D03*
X182570Y-353757D02*
G54D32*
D03*
X190570Y-467757D02*
G54D32*
D03*
X190568Y-353760D02*
G54D32*
D03*
X198568Y-467760D02*
G54D32*
D03*
X198568Y-353760D02*
G54D32*
D03*
X206568Y-467760D02*
G54D32*
D03*
X206568Y-353760D02*
G54D32*
D03*
X214568Y-467760D02*
G54D32*
D03*
X214568Y-353760D02*
G54D32*
D03*
X222568Y-467760D02*
G54D32*
D03*
X222568Y-353760D02*
G54D32*
D03*
X125568Y-450760D02*
G54D33*
D03*
X239568Y-450760D02*
G54D33*
D03*
X125568Y-442760D02*
G54D33*
D03*
X239568Y-442760D02*
G54D33*
D03*
X125568Y-434760D02*
G54D33*
D03*
X239568Y-434760D02*
G54D33*
D03*
X125568Y-426760D02*
G54D33*
D03*
X239568Y-426760D02*
G54D33*
D03*
X125568Y-418760D02*
G54D33*
D03*
X239568Y-418760D02*
G54D33*
D03*
X125568Y-410760D02*
G54D33*
D03*
X239568Y-410760D02*
G54D33*
D03*
X125568Y-402760D02*
G54D33*
D03*
X239568Y-402760D02*
G54D33*
D03*
X125568Y-394760D02*
G54D33*
D03*
X239568Y-394760D02*
G54D33*
D03*
X125568Y-386760D02*
G54D33*
D03*
X239568Y-386760D02*
G54D33*
D03*
X125568Y-378760D02*
G54D33*
D03*
X239568Y-378760D02*
G54D33*
D03*
X125568Y-370760D02*
G54D33*
D03*
X239568Y-370760D02*
G54D33*
D03*
X194000Y-422500D02*
G54D34*
D03*
X186500Y-393500D02*
G54D34*
D03*
X182750Y-485250D02*
G54D22*
D03*
X199755Y-485249D02*
G54D22*
D03*
X186500Y-402500D02*
G54D34*
D03*
X152003Y-66675D02*
G54D35*
D03*
X152008Y-86677D02*
G54D35*
D03*
X176608Y-76677D02*
G54D35*
D03*
X151610Y-103587D02*
G54D35*
D03*
X151611Y-123586D02*
G54D35*
D03*
X176211Y-113586D02*
G54D35*
D03*
X323000Y-646000D02*
G54D22*
D03*
X339998Y-646003D02*
G54D22*
D03*
X170200Y-408450D02*
G54D36*
D03*
X978000Y-164000D02*
G54D37*
D03*
X949997Y-164000D02*
G54D37*
D03*
X254000Y-213000D02*
G54D38*
D03*
X254004Y-283105D02*
G54D38*
D03*
G54D39*
G75*
G01X50007Y-636158D02*
G03X50007Y-647158I0J-5500D01*
G01*
G54D39*
G75*
G01X62007Y-647158D02*
G03X62007Y-636158I0J5500D01*
G01*
G54D39*
X50007Y-636158D02*
X62007Y-636158D01*
G54D39*
X62007Y-647158D02*
X50007Y-647158D01*
G54D39*
G75*
G01X50007Y-549158D02*
G03X50007Y-560158I0J-5500D01*
G01*
G54D39*
G75*
G01X62007Y-560158D02*
G03X62007Y-549158I0J5500D01*
G01*
G54D39*
X50007Y-549158D02*
X62007Y-549158D01*
G54D39*
X62007Y-560158D02*
X50007Y-560158D01*
G54D39*
G75*
G01X8307Y-636158D02*
G03X8307Y-647158I0J-5500D01*
G01*
G54D39*
G75*
G01X18307Y-647158D02*
G03X18307Y-636158I0J5500D01*
G01*
G54D39*
X8307Y-636158D02*
X18307Y-636158D01*
G54D39*
X18307Y-647158D02*
X8307Y-647158D01*
G54D39*
G75*
G01X8307Y-549158D02*
G03X8307Y-560158I0J-5500D01*
G01*
G54D39*
G75*
G01X18307Y-560158D02*
G03X18307Y-549158I0J5500D01*
G01*
G54D39*
X8307Y-549158D02*
X18307Y-549158D01*
G54D39*
X18307Y-560158D02*
X8307Y-560158D01*
X89500Y-615500D02*
G54D22*
D03*
X106498Y-615503D02*
G54D22*
D03*
X968000Y-246000D02*
G54D22*
D03*
X951002Y-245997D02*
G54D22*
D03*
X61000Y-510000D02*
G54D22*
D03*
X43995Y-510001D02*
G54D22*
D03*
X135000Y-523000D02*
G54D40*
D03*
X95000Y-523000D02*
G54D40*
D03*
X135000Y-516500D02*
G54D40*
D03*
X95000Y-516500D02*
G54D40*
D03*
X135000Y-510000D02*
G54D40*
D03*
X95000Y-510000D02*
G54D40*
D03*
X135000Y-503500D02*
G54D40*
D03*
X95000Y-503500D02*
G54D40*
D03*
X124750Y-533250D02*
G54D41*
D03*
X124750Y-493250D02*
G54D41*
D03*
X118250Y-533250D02*
G54D41*
D03*
X118250Y-493250D02*
G54D41*
D03*
X111750Y-533250D02*
G54D41*
D03*
X111750Y-493250D02*
G54D41*
D03*
X105250Y-533250D02*
G54D41*
D03*
X105250Y-493250D02*
G54D41*
D03*
X144500Y-529500D02*
G54D42*
D03*
X85500Y-529500D02*
G54D42*
D03*
X144500Y-523000D02*
G54D42*
D03*
X85500Y-523000D02*
G54D42*
D03*
X144500Y-516500D02*
G54D42*
D03*
X85500Y-516500D02*
G54D42*
D03*
X144500Y-510000D02*
G54D42*
D03*
X85500Y-510000D02*
G54D42*
D03*
X144500Y-503500D02*
G54D42*
D03*
X85500Y-503500D02*
G54D42*
D03*
X144500Y-497000D02*
G54D42*
D03*
X85500Y-497000D02*
G54D42*
D03*
X144500Y-490500D02*
G54D42*
D03*
X85500Y-490500D02*
G54D42*
D03*
M02*
