%FSLAX34Y34*%
%MOMM*%
%LNSILK_BOTTOM*%
G71*
G01*
%ADD10C,0.191*%
%ADD11C,0.150*%
%ADD12C,0.033*%
%ADD13C,0.127*%
%ADD14C,0.170*%
%ADD15C,0.064*%
%ADD16C,0.159*%
%ADD17C,0.200*%
%ADD18C,0.490*%
%ADD19C,0.489*%
%LPD*%
G54D10*
X978696Y-270141D02*
X982962Y-270141D01*
X982962Y-269474D01*
X982429Y-268141D01*
X979229Y-264141D01*
X978696Y-262807D01*
X978696Y-261474D01*
X979229Y-260141D01*
X980296Y-259474D01*
X981362Y-259474D01*
X982429Y-260141D01*
X982962Y-261474D01*
G54D10*
X972296Y-264807D02*
X973362Y-264807D01*
X974429Y-264141D01*
X974962Y-262807D01*
X974962Y-261474D01*
X974429Y-260141D01*
X973362Y-259474D01*
X972296Y-259474D01*
X971229Y-260141D01*
X970696Y-261474D01*
X970696Y-262807D01*
X971229Y-264141D01*
X972296Y-264807D01*
X971229Y-265474D01*
X970696Y-266807D01*
X970696Y-268141D01*
X971229Y-269474D01*
X972296Y-270141D01*
X973362Y-270141D01*
X974429Y-269474D01*
X974962Y-268141D01*
X974962Y-266807D01*
X974429Y-265474D01*
X973362Y-264807D01*
G54D10*
X966962Y-259474D02*
X962696Y-259474D01*
X963229Y-260807D01*
X964296Y-262807D01*
X965362Y-265474D01*
X965896Y-267474D01*
X965896Y-270141D01*
G54D10*
X925403Y-216605D02*
X922736Y-212605D01*
X922736Y-223272D01*
G54D10*
X914736Y-214605D02*
X914736Y-221272D01*
X915270Y-222605D01*
X916336Y-223272D01*
X917403Y-223272D01*
X918470Y-222605D01*
X919003Y-221272D01*
X919003Y-214605D01*
X918470Y-213272D01*
X917403Y-212605D01*
X916336Y-212605D01*
X915270Y-213272D01*
X914736Y-214605D01*
G54D10*
X911003Y-223272D02*
X911003Y-217272D01*
G54D10*
X911003Y-218605D02*
X910470Y-217672D01*
X909403Y-217272D01*
X908336Y-217672D01*
X907803Y-218605D01*
X907803Y-223272D01*
G54D10*
X786050Y-407264D02*
X790317Y-407264D01*
X790317Y-406597D01*
X789783Y-405264D01*
X786583Y-401264D01*
X786050Y-399931D01*
X786050Y-398597D01*
X786583Y-397264D01*
X787650Y-396597D01*
X788717Y-396597D01*
X789783Y-397264D01*
X790317Y-398597D01*
G54D10*
X778050Y-407264D02*
X782317Y-407264D01*
X782317Y-406597D01*
X781783Y-405264D01*
X778583Y-401264D01*
X778050Y-399931D01*
X778050Y-398597D01*
X778583Y-397264D01*
X779650Y-396597D01*
X780717Y-396597D01*
X781783Y-397264D01*
X782317Y-398597D01*
G54D10*
X770477Y-401264D02*
X770477Y-409931D01*
G54D10*
X770477Y-405264D02*
X769943Y-406997D01*
X768877Y-407264D01*
X767810Y-406997D01*
X767277Y-405664D01*
X767277Y-402997D01*
X767810Y-401664D01*
X768877Y-401264D01*
X769943Y-401664D01*
X770477Y-403264D01*
G54D10*
X763544Y-407264D02*
X763544Y-396597D01*
X759810Y-396597D01*
G54D10*
X763544Y-401931D02*
X759810Y-401931D01*
G54D10*
X709117Y-406264D02*
X709117Y-395597D01*
X712317Y-402264D01*
X712317Y-403597D01*
X708050Y-403597D01*
G54D10*
X704317Y-395597D02*
X700050Y-395597D01*
X700583Y-396931D01*
X701650Y-398931D01*
X702717Y-401597D01*
X703250Y-403597D01*
X703250Y-406264D01*
G54D10*
X692477Y-400264D02*
X692477Y-408931D01*
G54D10*
X692477Y-404264D02*
X691943Y-405997D01*
X690877Y-406264D01*
X689810Y-405997D01*
X689277Y-404664D01*
X689277Y-401997D01*
X689810Y-400664D01*
X690877Y-400264D01*
X691943Y-400664D01*
X692477Y-402264D01*
G54D10*
X685544Y-406264D02*
X685544Y-395597D01*
X681810Y-395597D01*
G54D10*
X685544Y-400931D02*
X681810Y-400931D01*
G54D10*
X644316Y-400597D02*
X641650Y-396597D01*
X641650Y-407264D01*
G54D10*
X633650Y-398597D02*
X633650Y-405264D01*
X634183Y-406597D01*
X635250Y-407264D01*
X636316Y-407264D01*
X637383Y-406597D01*
X637916Y-405264D01*
X637916Y-398597D01*
X637383Y-397264D01*
X636316Y-396597D01*
X635250Y-396597D01*
X634183Y-397264D01*
X633650Y-398597D01*
G54D10*
X625650Y-398597D02*
X625650Y-405264D01*
X626183Y-406597D01*
X627250Y-407264D01*
X628316Y-407264D01*
X629383Y-406597D01*
X629916Y-405264D01*
X629916Y-398597D01*
X629383Y-397264D01*
X628316Y-396597D01*
X627250Y-396597D01*
X626183Y-397264D01*
X625650Y-398597D01*
G54D10*
X618076Y-401264D02*
X618076Y-409931D01*
G54D10*
X618076Y-405264D02*
X617543Y-406997D01*
X616476Y-407264D01*
X615410Y-406997D01*
X614876Y-405664D01*
X614876Y-402997D01*
X615410Y-401664D01*
X616476Y-401264D01*
X617543Y-401664D01*
X618076Y-403264D01*
G54D10*
X611144Y-407264D02*
X611144Y-396597D01*
X607410Y-396597D01*
G54D10*
X611144Y-401931D02*
X607410Y-401931D01*
G54D10*
X561050Y-406264D02*
X565316Y-406264D01*
X565316Y-405597D01*
X564783Y-404264D01*
X561583Y-400264D01*
X561050Y-398931D01*
X561050Y-397597D01*
X561583Y-396264D01*
X562650Y-395597D01*
X563716Y-395597D01*
X564783Y-396264D01*
X565316Y-397597D01*
G54D10*
X553050Y-406264D02*
X557316Y-406264D01*
X557316Y-405597D01*
X556783Y-404264D01*
X553583Y-400264D01*
X553050Y-398931D01*
X553050Y-397597D01*
X553583Y-396264D01*
X554650Y-395597D01*
X555716Y-395597D01*
X556783Y-396264D01*
X557316Y-397597D01*
G54D10*
X545050Y-397597D02*
X545050Y-404264D01*
X545583Y-405597D01*
X546650Y-406264D01*
X547716Y-406264D01*
X548783Y-405597D01*
X549316Y-404264D01*
X549316Y-397597D01*
X548783Y-396264D01*
X547716Y-395597D01*
X546650Y-395597D01*
X545583Y-396264D01*
X545050Y-397597D01*
G54D10*
X537476Y-400264D02*
X537476Y-408931D01*
G54D10*
X537476Y-404264D02*
X536943Y-405997D01*
X535876Y-406264D01*
X534810Y-405997D01*
X534276Y-404664D01*
X534276Y-401997D01*
X534810Y-400664D01*
X535876Y-400264D01*
X536943Y-400664D01*
X537476Y-402264D01*
G54D10*
X530544Y-406264D02*
X530544Y-395597D01*
X526810Y-395597D01*
G54D10*
X530544Y-400931D02*
X526810Y-400931D01*
G54D10*
X491116Y-407264D02*
X491116Y-396597D01*
X494316Y-403264D01*
X494316Y-404597D01*
X490050Y-404597D01*
G54D10*
X486316Y-396597D02*
X482050Y-396597D01*
X482583Y-397931D01*
X483650Y-399931D01*
X484716Y-402597D01*
X485250Y-404597D01*
X485250Y-407264D01*
G54D10*
X474050Y-398597D02*
X474050Y-405264D01*
X474583Y-406597D01*
X475650Y-407264D01*
X476716Y-407264D01*
X477783Y-406597D01*
X478316Y-405264D01*
X478316Y-398597D01*
X477783Y-397264D01*
X476716Y-396597D01*
X475650Y-396597D01*
X474583Y-397264D01*
X474050Y-398597D01*
G54D10*
X466476Y-401264D02*
X466476Y-409931D01*
G54D10*
X466476Y-405264D02*
X465943Y-406997D01*
X464876Y-407264D01*
X463810Y-406997D01*
X463276Y-405664D01*
X463276Y-402997D01*
X463810Y-401664D01*
X464876Y-401264D01*
X465943Y-401664D01*
X466476Y-403264D01*
G54D10*
X459544Y-407264D02*
X459544Y-396597D01*
X455810Y-396597D01*
G54D10*
X459544Y-401931D02*
X455810Y-401931D01*
G54D11*
X783890Y-542554D02*
X783890Y-554554D01*
X758890Y-554554D01*
X758890Y-542553D01*
X783890Y-542554D01*
G54D11*
X722000Y-554500D02*
X722000Y-542500D01*
X747000Y-542500D01*
X747000Y-554500D01*
X722000Y-554500D01*
G54D11*
X647000Y-554500D02*
X647000Y-542500D01*
X672000Y-542500D01*
X672000Y-554500D01*
X647000Y-554500D01*
G54D11*
X572000Y-554500D02*
X572000Y-542500D01*
X597000Y-542500D01*
X597000Y-554500D01*
X572000Y-554500D01*
G54D11*
X497000Y-554500D02*
X497000Y-542500D01*
X522000Y-542500D01*
X522000Y-554500D01*
X497000Y-554500D01*
G54D11*
X422000Y-554500D02*
X422000Y-542500D01*
X447000Y-542500D01*
X447000Y-554500D01*
X422000Y-554500D01*
G54D11*
X347000Y-554500D02*
X347000Y-542500D01*
X372000Y-542500D01*
X372000Y-554500D01*
X347000Y-554500D01*
G54D11*
X272000Y-554500D02*
X272000Y-542500D01*
X297000Y-542500D01*
X297000Y-554500D01*
X272000Y-554500D01*
G54D11*
X832000Y-120500D02*
X832000Y-132500D01*
X807000Y-132500D01*
X807000Y-120500D01*
X832000Y-120500D01*
G54D11*
X766500Y-132500D02*
X766500Y-120500D01*
X791500Y-120500D01*
X791500Y-132500D01*
X766500Y-132500D01*
G54D11*
X692000Y-132500D02*
X692000Y-120500D01*
X717000Y-120500D01*
X717000Y-132500D01*
X692000Y-132500D01*
G54D11*
X617000Y-132500D02*
X617000Y-120500D01*
X642000Y-120500D01*
X642000Y-132500D01*
X617000Y-132500D01*
G54D11*
X542000Y-132500D02*
X542000Y-120500D01*
X567000Y-120500D01*
X567000Y-132500D01*
X542000Y-132500D01*
G54D11*
X467500Y-132500D02*
X467500Y-120500D01*
X492500Y-120500D01*
X492500Y-132500D01*
X467500Y-132500D01*
G54D11*
X393000Y-132500D02*
X393000Y-120500D01*
X418000Y-120500D01*
X418000Y-132500D01*
X393000Y-132500D01*
G54D11*
X317500Y-132500D02*
X317500Y-120500D01*
X342500Y-120500D01*
X342500Y-132500D01*
X317500Y-132500D01*
G54D11*
X275500Y-132500D02*
X275500Y-120500D01*
X300500Y-120500D01*
X300500Y-132500D01*
X275500Y-132500D01*
G54D11*
X75000Y-406500D02*
X75000Y-432500D01*
X25000Y-432500D01*
X25000Y-406500D01*
X75000Y-406500D01*
G54D10*
X58215Y-396868D02*
X55548Y-392868D01*
X55548Y-403534D01*
G54D10*
X47548Y-394868D02*
X47548Y-401534D01*
X48081Y-402868D01*
X49148Y-403534D01*
X50215Y-403534D01*
X51281Y-402868D01*
X51815Y-401534D01*
X51815Y-394868D01*
X51281Y-393534D01*
X50215Y-392868D01*
X49148Y-392868D01*
X48081Y-393534D01*
X47548Y-394868D01*
G54D10*
X40615Y-397534D02*
X40615Y-403535D01*
G54D10*
X40615Y-402201D02*
X41148Y-403268D01*
X42215Y-403534D01*
X43281Y-403268D01*
X43815Y-402201D01*
X43815Y-397534D01*
G54D11*
X79500Y-302500D02*
X79500Y-328500D01*
X29500Y-328500D01*
X29500Y-302500D01*
X79500Y-302500D01*
G54D10*
X65203Y-293875D02*
X62536Y-289875D01*
X62536Y-300541D01*
G54D10*
X54536Y-291875D02*
X54536Y-298541D01*
X55069Y-299875D01*
X56136Y-300541D01*
X57203Y-300541D01*
X58269Y-299875D01*
X58803Y-298541D01*
X58803Y-291875D01*
X58269Y-290541D01*
X57203Y-289875D01*
X56136Y-289875D01*
X55069Y-290541D01*
X54536Y-291875D01*
G54D10*
X47603Y-294541D02*
X47603Y-300541D01*
G54D10*
X47603Y-299208D02*
X48136Y-300275D01*
X49203Y-300541D01*
X50269Y-300275D01*
X50803Y-299208D01*
X50803Y-294541D01*
G54D11*
X113996Y-523000D02*
X100996Y-523000D01*
X100996Y-533000D01*
G54D11*
X100996Y-545000D02*
X100996Y-555001D01*
X113996Y-555000D01*
G54D11*
X113997Y-543000D02*
X113997Y-535000D01*
G54D12*
X100524Y-537891D02*
X99024Y-537891D01*
G54D12*
X98524Y-537891D02*
X98524Y-537891D01*
G54D12*
X100524Y-538624D02*
X99024Y-538624D01*
G54D12*
X99357Y-538624D02*
X99124Y-538757D01*
X99024Y-539024D01*
X99124Y-539291D01*
X99357Y-539424D01*
X100524Y-539424D01*
G54D13*
X104241Y-532752D02*
X103353Y-533107D01*
X102908Y-533818D01*
X102908Y-534530D01*
X103353Y-535240D01*
X104241Y-535596D01*
X105130Y-535596D01*
X106019Y-535241D01*
X106464Y-534529D01*
X106908Y-535241D01*
X107797Y-535596D01*
X108686Y-535596D01*
X109575Y-535240D01*
X110019Y-534530D01*
X110019Y-533818D01*
X109575Y-533107D01*
X108686Y-532752D01*
G54D13*
X102908Y-538085D02*
X110019Y-539862D01*
X102908Y-541640D01*
G54D13*
X104241Y-544130D02*
X103353Y-544485D01*
X102908Y-545196D01*
X102908Y-545908D01*
X103353Y-546619D01*
X104242Y-546974D01*
X105130Y-546974D01*
X106019Y-546619D01*
X106464Y-545908D01*
X106908Y-546619D01*
X107797Y-546974D01*
X108686Y-546974D01*
X109575Y-546619D01*
X110019Y-545908D01*
X110019Y-545196D01*
X109575Y-544485D01*
X108686Y-544130D01*
G54D10*
X24713Y-629661D02*
X24713Y-618995D01*
X20980Y-618995D01*
G54D10*
X24713Y-624328D02*
X20980Y-624328D01*
G54D10*
X17247Y-622995D02*
X14580Y-618995D01*
X14580Y-629661D01*
G54D10*
X10847Y-629661D02*
X8180Y-618995D01*
X5514Y-629661D01*
G54D10*
X9780Y-625661D02*
X6580Y-625661D01*
G54D11*
X152500Y-553000D02*
X140500Y-553000D01*
X140500Y-528000D01*
X152500Y-528000D01*
X152500Y-553000D01*
G54D10*
X154813Y-518168D02*
X152146Y-514168D01*
X152146Y-524835D01*
G54D10*
X144146Y-516168D02*
X144146Y-522835D01*
X144680Y-524168D01*
X145746Y-524835D01*
X146813Y-524835D01*
X147880Y-524168D01*
X148413Y-522835D01*
X148413Y-516168D01*
X147880Y-514835D01*
X146813Y-514168D01*
X145746Y-514168D01*
X144680Y-514835D01*
X144146Y-516168D01*
G54D10*
X140413Y-524835D02*
X140413Y-514168D01*
G54D10*
X138813Y-520835D02*
X137213Y-524835D01*
G54D10*
X140413Y-522168D02*
X137213Y-518835D01*
G54D10*
X56612Y-517918D02*
X53946Y-513918D01*
X53946Y-524585D01*
G54D10*
X47012Y-518585D02*
X47012Y-524585D01*
G54D10*
X47012Y-523252D02*
X47546Y-524318D01*
X48612Y-524585D01*
X49679Y-524318D01*
X50212Y-523252D01*
X50213Y-518585D01*
G54D10*
X134189Y-517893D02*
X131522Y-513893D01*
X131522Y-524559D01*
G54D10*
X124589Y-518559D02*
X124589Y-524559D01*
G54D10*
X124589Y-523226D02*
X125122Y-524293D01*
X126189Y-524559D01*
X127256Y-524293D01*
X127789Y-523226D01*
X127789Y-518559D01*
G36*
X151752Y-492896D02*
X142752Y-483897D01*
X133752Y-492896D01*
X151752Y-492896D01*
G37*
G54D14*
X151752Y-492896D02*
X142752Y-483897D01*
X133752Y-492896D01*
X151752Y-492896D01*
G54D11*
X126498Y-527995D02*
X138498Y-527996D01*
X138498Y-552995D01*
X126498Y-552995D01*
X126498Y-527995D01*
G54D15*
X69439Y-466217D02*
X69439Y-462662D01*
X68550Y-462662D01*
X68194Y-462884D01*
X68016Y-463328D01*
X68016Y-465550D01*
X68194Y-465995D01*
X68550Y-466217D01*
X69439Y-466217D01*
G54D15*
X66773Y-466217D02*
X65884Y-462662D01*
X64995Y-466217D01*
G54D15*
X66417Y-464884D02*
X65350Y-464884D01*
G54D15*
X63040Y-466217D02*
X63039Y-462662D01*
G54D15*
X63751Y-462662D02*
X62328Y-462662D01*
G54D15*
X42715Y-465099D02*
X42893Y-465544D01*
X43248Y-465766D01*
X43604Y-465766D01*
X43959Y-465544D01*
X44137Y-465099D01*
X44137Y-462877D01*
X43959Y-462433D01*
X43604Y-462210D01*
X43248Y-462210D01*
X42893Y-462432D01*
X42715Y-462877D01*
G54D15*
X41471Y-462210D02*
X41471Y-465766D01*
X40227Y-465766D01*
G54D15*
X38983Y-465766D02*
X38983Y-462210D01*
G54D15*
X38983Y-464654D02*
X37561Y-462210D01*
G54D15*
X38450Y-463988D02*
X37561Y-465766D01*
G54D15*
X146227Y-466114D02*
X146227Y-462559D01*
X145339Y-464781D01*
X144450Y-462559D01*
X144450Y-466114D01*
G54D15*
X141783Y-465448D02*
X141961Y-465892D01*
X142317Y-466114D01*
X142672Y-466114D01*
X143028Y-465892D01*
X143205Y-465448D01*
X143205Y-463226D01*
X143028Y-462781D01*
X142672Y-462559D01*
X142316Y-462559D01*
X141961Y-462781D01*
X141783Y-463225D01*
G54D15*
X140539Y-462559D02*
X140539Y-466114D01*
X139295Y-466114D01*
G54D15*
X137340Y-464336D02*
X136807Y-464781D01*
X136629Y-465226D01*
X136629Y-466114D01*
G54D15*
X138051Y-466114D02*
X138051Y-462559D01*
X137162Y-462559D01*
X136807Y-462781D01*
X136629Y-463226D01*
X136629Y-463670D01*
X136807Y-464114D01*
X137163Y-464336D01*
X138051Y-464336D01*
G54D15*
X94018Y-464544D02*
X93307Y-464544D01*
X93307Y-465655D01*
X93485Y-466099D01*
X93840Y-466322D01*
X94196Y-466322D01*
X94551Y-466099D01*
X94729Y-465655D01*
X94729Y-463432D01*
X94551Y-462988D01*
X94196Y-462766D01*
X93840Y-462766D01*
X93485Y-462988D01*
X93307Y-463432D01*
G54D15*
X92063Y-466322D02*
X92063Y-462766D01*
X90641Y-466322D01*
X90641Y-462766D01*
G54D15*
X89397Y-466322D02*
X89397Y-462766D01*
X88508Y-462766D01*
X88153Y-462988D01*
X87975Y-463432D01*
X87975Y-465655D01*
X88153Y-466099D01*
X88508Y-466322D01*
X89397Y-466322D01*
G54D15*
X119746Y-462763D02*
X118857Y-466318D01*
X117968Y-462763D01*
G54D15*
X115302Y-465652D02*
X115480Y-466096D01*
X115835Y-466318D01*
X116191Y-466318D01*
X116546Y-466096D01*
X116724Y-465652D01*
X116724Y-463430D01*
X116546Y-462985D01*
X116191Y-462763D01*
X115835Y-462763D01*
X115480Y-462985D01*
X115302Y-463429D01*
G54D15*
X112636Y-465652D02*
X112814Y-466096D01*
X113169Y-466318D01*
X113525Y-466318D01*
X113880Y-466096D01*
X114058Y-465652D01*
X114058Y-463430D01*
X113880Y-462985D01*
X113525Y-462763D01*
X113169Y-462763D01*
X112814Y-462985D01*
X112636Y-463430D01*
G54D11*
X26500Y-615500D02*
X4500Y-615500D01*
X4500Y-567500D01*
X26500Y-567500D01*
X26500Y-615500D01*
G54D11*
X167500Y-514000D02*
X180500Y-514000D01*
X180500Y-504000D01*
G54D11*
X180500Y-492000D02*
X180500Y-482000D01*
X167500Y-482000D01*
G54D11*
X167500Y-494000D02*
X167500Y-502000D01*
G54D11*
X180501Y-553003D02*
X168501Y-553003D01*
X168501Y-528003D01*
X180501Y-528003D01*
X180501Y-553003D01*
G54D11*
X93000Y-333500D02*
X105000Y-333500D01*
X105000Y-358500D01*
X93000Y-358500D01*
X93000Y-333500D01*
G54D10*
X200026Y-545678D02*
X197360Y-541678D01*
X197360Y-552344D01*
G54D10*
X189360Y-543678D02*
X189360Y-550344D01*
X189893Y-551678D01*
X190960Y-552344D01*
X192026Y-552344D01*
X193093Y-551678D01*
X193626Y-550344D01*
X193626Y-543678D01*
X193093Y-542344D01*
X192026Y-541678D01*
X190960Y-541678D01*
X189893Y-542344D01*
X189360Y-543678D01*
G54D10*
X185626Y-552344D02*
X185626Y-541678D01*
G54D10*
X184026Y-548344D02*
X182426Y-552344D01*
G54D10*
X185626Y-549678D02*
X182426Y-546344D01*
G54D10*
X90833Y-347243D02*
X88166Y-343243D01*
X88166Y-353910D01*
G54D10*
X80166Y-345243D02*
X80166Y-351910D01*
X80699Y-353243D01*
X81766Y-353910D01*
X82833Y-353910D01*
X83899Y-353243D01*
X84433Y-351910D01*
X84433Y-345243D01*
X83899Y-343910D01*
X82833Y-343243D01*
X81766Y-343243D01*
X80699Y-343910D01*
X80166Y-345243D01*
G54D10*
X76433Y-353910D02*
X76433Y-343243D01*
G54D10*
X74833Y-349910D02*
X73233Y-353910D01*
G54D10*
X76433Y-351243D02*
X73233Y-347910D01*
G54D10*
X134289Y-213878D02*
X131622Y-209878D01*
X131622Y-220545D01*
G54D10*
X127889Y-220545D02*
X127889Y-209878D01*
G54D10*
X126289Y-216545D02*
X124689Y-220545D01*
G54D10*
X127889Y-217878D02*
X124689Y-214545D01*
G54D10*
X151151Y-170015D02*
X155417Y-170015D01*
X155417Y-169348D01*
X154884Y-168015D01*
X151684Y-164015D01*
X151151Y-162682D01*
X151151Y-161348D01*
X151684Y-160015D01*
X152751Y-159348D01*
X153817Y-159348D01*
X154884Y-160015D01*
X155417Y-161348D01*
G54D10*
X143151Y-170015D02*
X147417Y-170015D01*
X147417Y-169348D01*
X146884Y-168015D01*
X143684Y-164015D01*
X143151Y-162682D01*
X143151Y-161348D01*
X143684Y-160015D01*
X144751Y-159348D01*
X145817Y-159348D01*
X146884Y-160015D01*
X147417Y-161348D01*
G54D10*
X135151Y-161348D02*
X135151Y-168015D01*
X135684Y-169348D01*
X136751Y-170015D01*
X137817Y-170015D01*
X138884Y-169348D01*
X139417Y-168015D01*
X139417Y-161348D01*
X138884Y-160015D01*
X137817Y-159348D01*
X136751Y-159348D01*
X135684Y-160015D01*
X135151Y-161348D01*
G54D11*
X79500Y-128000D02*
X79500Y-116000D01*
X104500Y-116000D01*
X104500Y-128000D01*
X79500Y-128000D01*
G54D10*
X103286Y-106877D02*
X100619Y-102877D01*
X100619Y-113544D01*
G54D10*
X92619Y-104877D02*
X92619Y-111544D01*
X93153Y-112877D01*
X94219Y-113544D01*
X95286Y-113544D01*
X96353Y-112877D01*
X96886Y-111544D01*
X96886Y-104877D01*
X96353Y-103544D01*
X95286Y-102877D01*
X94219Y-102877D01*
X93153Y-103544D01*
X92619Y-104877D01*
G54D10*
X88886Y-113544D02*
X88886Y-102877D01*
G54D10*
X87286Y-109544D02*
X85686Y-113544D01*
G54D10*
X88886Y-110877D02*
X85686Y-107544D01*
G54D11*
X149081Y-326253D02*
X137081Y-326253D01*
X137081Y-301253D01*
X149081Y-301253D01*
X149081Y-326253D01*
G54D10*
X149579Y-332888D02*
X146913Y-328888D01*
X146913Y-339554D01*
G54D10*
X138913Y-330888D02*
X138913Y-337554D01*
X139446Y-338888D01*
X140513Y-339554D01*
X141579Y-339554D01*
X142646Y-338888D01*
X143179Y-337554D01*
X143179Y-330888D01*
X142646Y-329554D01*
X141579Y-328888D01*
X140513Y-328888D01*
X139446Y-329554D01*
X138913Y-330888D01*
G54D10*
X135179Y-339554D02*
X135179Y-333554D01*
G54D10*
X135179Y-334888D02*
X134646Y-333954D01*
X133579Y-333554D01*
X132513Y-333954D01*
X131979Y-334888D01*
X131979Y-339554D01*
G54D11*
X166081Y-326253D02*
X154081Y-326253D01*
X154081Y-301253D01*
X166081Y-301253D01*
X166081Y-326253D01*
G54D11*
X184081Y-326253D02*
X172081Y-326253D01*
X172081Y-301253D01*
X184081Y-301253D01*
X184081Y-326253D01*
G54D11*
X141081Y-173253D02*
X153081Y-173253D01*
X153081Y-198253D01*
X141081Y-198253D01*
X141081Y-173253D01*
G54D11*
X150081Y-228252D02*
X138081Y-228253D01*
X138081Y-203253D01*
X150081Y-203253D01*
X150081Y-228252D01*
G54D11*
X104999Y-387009D02*
X92999Y-387009D01*
X92999Y-362009D01*
X104999Y-362010D01*
X104999Y-387009D01*
G54D10*
X119555Y-389481D02*
X116889Y-385481D01*
X116889Y-396148D01*
G54D10*
X108889Y-387481D02*
X108889Y-394148D01*
X109422Y-395481D01*
X110489Y-396148D01*
X111555Y-396148D01*
X112622Y-395481D01*
X113155Y-394148D01*
X113155Y-387481D01*
X112622Y-386148D01*
X111555Y-385481D01*
X110489Y-385481D01*
X109422Y-386148D01*
X108889Y-387481D01*
G54D10*
X105155Y-396148D02*
X105155Y-390148D01*
G54D10*
X105155Y-391481D02*
X104622Y-390548D01*
X103555Y-390148D01*
X102489Y-390548D01*
X101955Y-391481D01*
X101955Y-396148D01*
G54D10*
X708831Y-58401D02*
X708831Y-47734D01*
X712031Y-54401D01*
X712031Y-55734D01*
X707765Y-55734D01*
G54D10*
X704031Y-47734D02*
X699765Y-47734D01*
X700298Y-49068D01*
X701365Y-51068D01*
X702431Y-53734D01*
X702965Y-55734D01*
X702965Y-58401D01*
G54D10*
X696031Y-58401D02*
X696031Y-47734D01*
G54D10*
X694431Y-54401D02*
X692831Y-58401D01*
G54D10*
X696031Y-55734D02*
X692831Y-52401D01*
G54D11*
X190188Y-195733D02*
X178188Y-195733D01*
X178188Y-170732D01*
X190188Y-170733D01*
X190188Y-195733D01*
G54D11*
X176188Y-195733D02*
X164188Y-195733D01*
X164188Y-170732D01*
X176188Y-170733D01*
X176188Y-195733D01*
G54D11*
X190188Y-167733D02*
X178188Y-167733D01*
X178188Y-142732D01*
X190188Y-142733D01*
X190188Y-167733D01*
G54D11*
X176188Y-167733D02*
X164188Y-167733D01*
X164188Y-142732D01*
X176188Y-142733D01*
X176188Y-167733D01*
G54D10*
X183896Y-208893D02*
X183896Y-198226D01*
X187096Y-204893D01*
X187096Y-206226D01*
X182829Y-206226D01*
G54D10*
X179096Y-198226D02*
X174829Y-198226D01*
X175362Y-199559D01*
X176429Y-201559D01*
X177496Y-204226D01*
X178029Y-206226D01*
X178029Y-208893D01*
G54D10*
X171096Y-208893D02*
X171096Y-198226D01*
G54D10*
X169496Y-204893D02*
X167896Y-208893D01*
G54D10*
X171096Y-206226D02*
X167896Y-202893D01*
G54D10*
X184521Y-131028D02*
X184521Y-137694D01*
X185054Y-139028D01*
X186121Y-139694D01*
X187188Y-139694D01*
X188254Y-139028D01*
X188788Y-137694D01*
X188788Y-131028D01*
X188254Y-129694D01*
X187188Y-129028D01*
X186121Y-129028D01*
X185054Y-129694D01*
X184521Y-131028D01*
G54D10*
X180788Y-139694D02*
X180788Y-139694D01*
G54D10*
X177055Y-133028D02*
X174388Y-129028D01*
X174388Y-139694D01*
G54D10*
X167455Y-133694D02*
X167455Y-139694D01*
G54D10*
X167455Y-138361D02*
X167988Y-139428D01*
X169055Y-139694D01*
X170122Y-139428D01*
X170655Y-138361D01*
X170655Y-133694D01*
G54D10*
X781860Y-535090D02*
X779194Y-531090D01*
X779194Y-541757D01*
G54D10*
X771194Y-533091D02*
X771194Y-539757D01*
X771727Y-541090D01*
X772794Y-541757D01*
X773860Y-541757D01*
X774927Y-541090D01*
X775460Y-539757D01*
X775460Y-533090D01*
X774927Y-531757D01*
X773860Y-531090D01*
X772794Y-531090D01*
X771727Y-531757D01*
X771194Y-533091D01*
G54D10*
X767460Y-541757D02*
X767460Y-535757D01*
G54D10*
X767460Y-537090D02*
X766927Y-536157D01*
X765860Y-535757D01*
X764794Y-536157D01*
X764260Y-537090D01*
X764260Y-541757D01*
G54D10*
X743860Y-534090D02*
X741194Y-530090D01*
X741194Y-540757D01*
G54D10*
X733194Y-532091D02*
X733194Y-538757D01*
X733727Y-540090D01*
X734794Y-540757D01*
X735860Y-540757D01*
X736927Y-540090D01*
X737460Y-538757D01*
X737460Y-532090D01*
X736927Y-530757D01*
X735860Y-530090D01*
X734794Y-530090D01*
X733727Y-530757D01*
X733194Y-532091D01*
G54D10*
X729460Y-540757D02*
X729460Y-534757D01*
G54D10*
X729460Y-536090D02*
X728927Y-535157D01*
X727860Y-534757D01*
X726794Y-535157D01*
X726260Y-536090D01*
X726260Y-540757D01*
G54D10*
X668860Y-533590D02*
X666194Y-529590D01*
X666194Y-540257D01*
G54D10*
X658194Y-531591D02*
X658194Y-538257D01*
X658727Y-539590D01*
X659794Y-540257D01*
X660860Y-540257D01*
X661927Y-539590D01*
X662460Y-538257D01*
X662460Y-531590D01*
X661927Y-530257D01*
X660860Y-529590D01*
X659794Y-529590D01*
X658727Y-530257D01*
X658194Y-531591D01*
G54D10*
X654460Y-540257D02*
X654460Y-534257D01*
G54D10*
X654460Y-535590D02*
X653927Y-534657D01*
X652860Y-534257D01*
X651794Y-534657D01*
X651260Y-535590D01*
X651260Y-540257D01*
G54D10*
X593860Y-533590D02*
X591194Y-529590D01*
X591194Y-540257D01*
G54D10*
X583194Y-531591D02*
X583194Y-538257D01*
X583727Y-539590D01*
X584794Y-540257D01*
X585860Y-540257D01*
X586927Y-539590D01*
X587460Y-538257D01*
X587460Y-531590D01*
X586927Y-530257D01*
X585860Y-529590D01*
X584794Y-529590D01*
X583727Y-530257D01*
X583194Y-531591D01*
G54D10*
X579460Y-540257D02*
X579460Y-534257D01*
G54D10*
X579460Y-535590D02*
X578927Y-534657D01*
X577860Y-534257D01*
X576794Y-534657D01*
X576260Y-535590D01*
X576260Y-540257D01*
G54D10*
X516860Y-533590D02*
X514194Y-529590D01*
X514194Y-540257D01*
G54D10*
X506194Y-531591D02*
X506194Y-538257D01*
X506727Y-539590D01*
X507794Y-540257D01*
X508860Y-540257D01*
X509927Y-539590D01*
X510460Y-538257D01*
X510460Y-531590D01*
X509927Y-530257D01*
X508860Y-529590D01*
X507794Y-529590D01*
X506727Y-530257D01*
X506194Y-531591D01*
G54D10*
X502460Y-540257D02*
X502460Y-534257D01*
G54D10*
X502460Y-535590D02*
X501927Y-534657D01*
X500860Y-534257D01*
X499794Y-534657D01*
X499260Y-535590D01*
X499260Y-540257D01*
G54D10*
X442360Y-533590D02*
X439694Y-529590D01*
X439694Y-540257D01*
G54D10*
X431694Y-531591D02*
X431694Y-538257D01*
X432227Y-539590D01*
X433294Y-540257D01*
X434360Y-540257D01*
X435427Y-539590D01*
X435960Y-538257D01*
X435960Y-531590D01*
X435427Y-530257D01*
X434360Y-529590D01*
X433294Y-529590D01*
X432227Y-530257D01*
X431694Y-531591D01*
G54D10*
X427960Y-540257D02*
X427960Y-534257D01*
G54D10*
X427960Y-535590D02*
X427427Y-534657D01*
X426360Y-534257D01*
X425294Y-534657D01*
X424760Y-535590D01*
X424760Y-540257D01*
G54D10*
X367860Y-533590D02*
X365194Y-529590D01*
X365194Y-540257D01*
G54D10*
X357194Y-531591D02*
X357194Y-538257D01*
X357727Y-539590D01*
X358794Y-540257D01*
X359860Y-540257D01*
X360927Y-539590D01*
X361460Y-538257D01*
X361460Y-531590D01*
X360927Y-530257D01*
X359860Y-529590D01*
X358794Y-529590D01*
X357727Y-530257D01*
X357194Y-531591D01*
G54D10*
X353460Y-540257D02*
X353460Y-534257D01*
G54D10*
X353460Y-535590D02*
X352927Y-534657D01*
X351860Y-534257D01*
X350794Y-534657D01*
X350260Y-535590D01*
X350260Y-540257D01*
G54D10*
X293860Y-533590D02*
X291194Y-529590D01*
X291194Y-540257D01*
G54D10*
X283194Y-531591D02*
X283194Y-538257D01*
X283727Y-539590D01*
X284794Y-540257D01*
X285860Y-540257D01*
X286927Y-539590D01*
X287460Y-538257D01*
X287460Y-531590D01*
X286927Y-530257D01*
X285860Y-529590D01*
X284794Y-529590D01*
X283727Y-530257D01*
X283194Y-531591D01*
G54D10*
X279460Y-540257D02*
X279460Y-534257D01*
G54D10*
X279460Y-535590D02*
X278927Y-534657D01*
X277860Y-534257D01*
X276794Y-534657D01*
X276260Y-535590D01*
X276260Y-540257D01*
G54D10*
X295860Y-138091D02*
X293194Y-134091D01*
X293194Y-144757D01*
G54D10*
X285194Y-136091D02*
X285194Y-142757D01*
X285727Y-144091D01*
X286794Y-144757D01*
X287860Y-144757D01*
X288927Y-144091D01*
X289460Y-142757D01*
X289460Y-136091D01*
X288927Y-134757D01*
X287860Y-134091D01*
X286794Y-134091D01*
X285727Y-134757D01*
X285194Y-136091D01*
G54D10*
X281460Y-144757D02*
X281460Y-138757D01*
G54D10*
X281460Y-140091D02*
X280927Y-139157D01*
X279860Y-138757D01*
X278794Y-139157D01*
X278260Y-140091D01*
X278260Y-144757D01*
G54D10*
X338360Y-138091D02*
X335694Y-134091D01*
X335694Y-144757D01*
G54D10*
X327694Y-136091D02*
X327694Y-142757D01*
X328227Y-144091D01*
X329294Y-144757D01*
X330360Y-144757D01*
X331427Y-144091D01*
X331960Y-142757D01*
X331960Y-136091D01*
X331427Y-134757D01*
X330360Y-134091D01*
X329294Y-134091D01*
X328227Y-134757D01*
X327694Y-136091D01*
G54D10*
X323960Y-144757D02*
X323960Y-138757D01*
G54D10*
X323960Y-140091D02*
X323427Y-139157D01*
X322360Y-138757D01*
X321294Y-139157D01*
X320760Y-140091D01*
X320760Y-144757D01*
G54D10*
X826860Y-138091D02*
X824194Y-134091D01*
X824194Y-144757D01*
G54D10*
X816194Y-136091D02*
X816194Y-142757D01*
X816727Y-144091D01*
X817794Y-144757D01*
X818860Y-144757D01*
X819927Y-144091D01*
X820460Y-142757D01*
X820460Y-136091D01*
X819927Y-134757D01*
X818860Y-134091D01*
X817794Y-134091D01*
X816727Y-134757D01*
X816194Y-136091D01*
G54D10*
X812460Y-144757D02*
X812460Y-138757D01*
G54D10*
X812460Y-140091D02*
X811927Y-139157D01*
X810860Y-138757D01*
X809794Y-139157D01*
X809260Y-140091D01*
X809260Y-144757D01*
G54D10*
X170182Y-284612D02*
X167516Y-280612D01*
X167516Y-291279D01*
G54D10*
X159516Y-282612D02*
X159516Y-289279D01*
X160049Y-290612D01*
X161116Y-291279D01*
X162182Y-291279D01*
X163249Y-290612D01*
X163782Y-289279D01*
X163782Y-282612D01*
X163249Y-281279D01*
X162182Y-280612D01*
X161116Y-280612D01*
X160049Y-281279D01*
X159516Y-282612D01*
G54D10*
X155782Y-291279D02*
X155782Y-285279D01*
G54D10*
X155782Y-286612D02*
X155249Y-285679D01*
X154182Y-285279D01*
X153116Y-285679D01*
X152582Y-286612D01*
X152582Y-291279D01*
G54D10*
X187801Y-334078D02*
X185135Y-330078D01*
X185135Y-340745D01*
G54D10*
X177135Y-332078D02*
X177135Y-338745D01*
X177668Y-340078D01*
X178735Y-340745D01*
X179801Y-340745D01*
X180868Y-340078D01*
X181401Y-338745D01*
X181401Y-332078D01*
X180868Y-330745D01*
X179801Y-330078D01*
X178735Y-330078D01*
X177668Y-330745D01*
X177135Y-332078D01*
G54D10*
X173401Y-340745D02*
X173401Y-334745D01*
G54D10*
X173401Y-336078D02*
X172868Y-335145D01*
X171801Y-334745D01*
X170735Y-335145D01*
X170201Y-336078D01*
X170201Y-340745D01*
G54D11*
X166498Y-553005D02*
X154498Y-553005D01*
X154498Y-528005D01*
X166498Y-528005D01*
X166498Y-553005D01*
G54D10*
X199594Y-513287D02*
X196928Y-509287D01*
X196928Y-519954D01*
G54D10*
X188928Y-511287D02*
X188928Y-517954D01*
X189461Y-519287D01*
X190528Y-519954D01*
X191594Y-519954D01*
X192661Y-519287D01*
X193194Y-517954D01*
X193194Y-511287D01*
X192661Y-509954D01*
X191594Y-509287D01*
X190528Y-509287D01*
X189461Y-509954D01*
X188928Y-511287D01*
G54D10*
X185194Y-519954D02*
X185194Y-513954D01*
G54D10*
X185194Y-515287D02*
X184661Y-514354D01*
X183594Y-513954D01*
X182528Y-514354D01*
X181994Y-515287D01*
X181994Y-519954D01*
G54D10*
X421316Y-400597D02*
X418650Y-396597D01*
X418650Y-407264D01*
G54D10*
X410650Y-398597D02*
X410650Y-405264D01*
X411183Y-406597D01*
X412250Y-407264D01*
X413316Y-407264D01*
X414383Y-406597D01*
X414916Y-405264D01*
X414916Y-398597D01*
X414383Y-397264D01*
X413316Y-396597D01*
X412250Y-396597D01*
X411183Y-397264D01*
X410650Y-398597D01*
G54D10*
X402650Y-398597D02*
X402650Y-405264D01*
X403183Y-406597D01*
X404250Y-407264D01*
X405316Y-407264D01*
X406383Y-406597D01*
X406916Y-405264D01*
X406916Y-398597D01*
X406383Y-397264D01*
X405316Y-396597D01*
X404250Y-396597D01*
X403183Y-397264D01*
X402650Y-398597D01*
G54D10*
X394650Y-398597D02*
X394650Y-405264D01*
X395183Y-406597D01*
X396250Y-407264D01*
X397316Y-407264D01*
X398383Y-406597D01*
X398916Y-405264D01*
X398916Y-398597D01*
X398383Y-397264D01*
X397316Y-396597D01*
X396250Y-396597D01*
X395183Y-397264D01*
X394650Y-398597D01*
G54D10*
X390916Y-401264D02*
X390916Y-409931D01*
G54D10*
X390916Y-405264D02*
X390383Y-406997D01*
X389316Y-407264D01*
X388250Y-406997D01*
X387716Y-405664D01*
X387716Y-402997D01*
X388250Y-401664D01*
X389316Y-401264D01*
X390383Y-401664D01*
X390916Y-403264D01*
G54D10*
X383984Y-407264D02*
X383984Y-396597D01*
X380250Y-396597D01*
G54D10*
X383984Y-401931D02*
X380250Y-401931D01*
G54D10*
X335050Y-392264D02*
X339316Y-392264D01*
X339316Y-391597D01*
X338783Y-390264D01*
X335583Y-386264D01*
X335050Y-384931D01*
X335050Y-383597D01*
X335583Y-382264D01*
X336650Y-381597D01*
X337716Y-381597D01*
X338783Y-382264D01*
X339316Y-383597D01*
G54D10*
X331316Y-386264D02*
X327050Y-392264D01*
G54D10*
X331316Y-392264D02*
X327050Y-386264D01*
G54D10*
X323316Y-385597D02*
X320650Y-381597D01*
X320650Y-392264D01*
G54D10*
X316916Y-392264D02*
X316916Y-386264D01*
G54D10*
X316916Y-387597D02*
X316383Y-386664D01*
X315316Y-386264D01*
X314250Y-386664D01*
X313716Y-387597D01*
X313716Y-392264D01*
G54D10*
X309984Y-392264D02*
X309984Y-381597D01*
X306250Y-381597D01*
G54D10*
X309984Y-386931D02*
X306250Y-386931D01*
G54D10*
X335050Y-407264D02*
X339316Y-407264D01*
X339316Y-406597D01*
X338783Y-405264D01*
X335583Y-401264D01*
X335050Y-399931D01*
X335050Y-398597D01*
X335583Y-397264D01*
X336650Y-396597D01*
X337716Y-396597D01*
X338783Y-397264D01*
X339316Y-398597D01*
G54D10*
X327050Y-407264D02*
X331316Y-407264D01*
X331316Y-406597D01*
X330783Y-405264D01*
X327583Y-401264D01*
X327050Y-399931D01*
X327050Y-398597D01*
X327583Y-397264D01*
X328650Y-396597D01*
X329716Y-396597D01*
X330783Y-397264D01*
X331316Y-398597D01*
G54D10*
X319050Y-398597D02*
X319050Y-405264D01*
X319583Y-406597D01*
X320650Y-407264D01*
X321716Y-407264D01*
X322783Y-406597D01*
X323316Y-405264D01*
X323316Y-398597D01*
X322783Y-397264D01*
X321716Y-396597D01*
X320650Y-396597D01*
X319583Y-397264D01*
X319050Y-398597D01*
G54D10*
X315316Y-401264D02*
X315316Y-409931D01*
G54D10*
X315316Y-405264D02*
X314783Y-406997D01*
X313716Y-407264D01*
X312650Y-406997D01*
X312116Y-405664D01*
X312116Y-402997D01*
X312650Y-401664D01*
X313716Y-401264D01*
X314783Y-401664D01*
X315316Y-403264D01*
G54D10*
X308384Y-407264D02*
X308384Y-396597D01*
X304650Y-396597D01*
G54D10*
X308384Y-401931D02*
X304650Y-401931D01*
G54D11*
X162000Y-586000D02*
X174000Y-586000D01*
X174000Y-611000D01*
X162000Y-611000D01*
X162000Y-586000D01*
G54D10*
X177733Y-617333D02*
X177733Y-624000D01*
X178267Y-625333D01*
X179333Y-626000D01*
X180400Y-626000D01*
X181467Y-625333D01*
X182000Y-624000D01*
X182000Y-617333D01*
X181467Y-616000D01*
X180400Y-615333D01*
X179333Y-615333D01*
X178267Y-616000D01*
X177733Y-617333D01*
G54D10*
X174000Y-626000D02*
X174000Y-626000D01*
G54D10*
X170267Y-619333D02*
X167600Y-615333D01*
X167600Y-626000D01*
G54D10*
X160667Y-620000D02*
X160667Y-626000D01*
G54D10*
X160667Y-624667D02*
X161200Y-625733D01*
X162267Y-626000D01*
X163334Y-625733D01*
X163867Y-624667D01*
X163867Y-620000D01*
G54D10*
X117498Y-619228D02*
X114831Y-615228D01*
X114831Y-625895D01*
G54D10*
X111098Y-625895D02*
X111098Y-619895D01*
G54D10*
X111098Y-621228D02*
X110564Y-620295D01*
X109498Y-619895D01*
X108431Y-620295D01*
X107898Y-621228D01*
X107898Y-625895D01*
G54D11*
X137000Y-586000D02*
X149000Y-586000D01*
X149000Y-611000D01*
X137000Y-611000D01*
X137000Y-586000D01*
G54D10*
X147204Y-619331D02*
X144537Y-615331D01*
X144537Y-625998D01*
G54D10*
X140804Y-625998D02*
X140804Y-619998D01*
G54D10*
X140804Y-621331D02*
X140271Y-620398D01*
X139204Y-619998D01*
X138137Y-620398D01*
X137604Y-621331D01*
X137604Y-625998D01*
G54D11*
X111500Y-586000D02*
X123500Y-586000D01*
X123500Y-611000D01*
X111500Y-611000D01*
X111500Y-586000D01*
G54D16*
X169760Y-486417D02*
X169760Y-489972D01*
X170871Y-489528D01*
X172538Y-488639D01*
X174760Y-487750D01*
X176427Y-487306D01*
X178649Y-487306D01*
G54D16*
X171427Y-496640D02*
X176982Y-496640D01*
X178094Y-496195D01*
X178649Y-495306D01*
X178649Y-494417D01*
X178094Y-493528D01*
X176982Y-493084D01*
X171427Y-493084D01*
X170316Y-493528D01*
X169760Y-494417D01*
X169760Y-495306D01*
X170316Y-496195D01*
X171427Y-496640D01*
G54D16*
X171427Y-503306D02*
X176982Y-503307D01*
X178094Y-502862D01*
X178649Y-501973D01*
X178649Y-501084D01*
X178094Y-500196D01*
X176982Y-499751D01*
X171427Y-499751D01*
X170316Y-500196D01*
X169760Y-501084D01*
X169760Y-501973D01*
X170316Y-502862D01*
X171427Y-503306D01*
G54D16*
X178649Y-509974D02*
X178649Y-506418D01*
X178094Y-506418D01*
X176982Y-506862D01*
X173649Y-509529D01*
X172538Y-509974D01*
X171427Y-509974D01*
X170316Y-509529D01*
X169760Y-508640D01*
X169760Y-507751D01*
X170316Y-506862D01*
X171427Y-506418D01*
G54D10*
X736837Y-53606D02*
X736837Y-42940D01*
X740037Y-49606D01*
X740037Y-50940D01*
X735771Y-50940D01*
G54D10*
X732037Y-42940D02*
X727771Y-42940D01*
X728304Y-44273D01*
X729371Y-46273D01*
X730437Y-48940D01*
X730971Y-50940D01*
X730971Y-53606D01*
G54D10*
X724037Y-53606D02*
X724037Y-42940D01*
G54D10*
X722437Y-49606D02*
X720837Y-53606D01*
G54D10*
X724037Y-50940D02*
X720837Y-47606D01*
G54D10*
X905197Y-38371D02*
X902530Y-34371D01*
X902530Y-45038D01*
G54D10*
X898797Y-45038D02*
X898797Y-34371D01*
G54D10*
X897197Y-41038D02*
X895597Y-45038D01*
G54D10*
X898797Y-42371D02*
X895597Y-39038D01*
G54D10*
X933875Y-118652D02*
X931208Y-114652D01*
X931208Y-125319D01*
G54D10*
X927475Y-125319D02*
X927475Y-114652D01*
G54D10*
X925875Y-121319D02*
X924275Y-125319D01*
G54D10*
X927475Y-122652D02*
X924275Y-119319D01*
G54D10*
X943937Y-72528D02*
X943937Y-79195D01*
X944470Y-80528D01*
X945537Y-81195D01*
X946604Y-81195D01*
X947670Y-80528D01*
X948204Y-79195D01*
X948204Y-72528D01*
X947670Y-71195D01*
X946604Y-70528D01*
X945537Y-70528D01*
X944470Y-71195D01*
X943937Y-72528D01*
G54D10*
X940204Y-81195D02*
X940204Y-81195D01*
G54D10*
X936471Y-74528D02*
X933804Y-70528D01*
X933804Y-81195D01*
G54D10*
X926871Y-75195D02*
X926871Y-81195D01*
G54D10*
X926871Y-79862D02*
X927404Y-80928D01*
X928471Y-81195D01*
X929537Y-80928D01*
X930071Y-79862D01*
X930071Y-75195D01*
G54D10*
X958374Y-116112D02*
X958374Y-122779D01*
X958908Y-124112D01*
X959974Y-124779D01*
X961041Y-124779D01*
X962108Y-124112D01*
X962641Y-122779D01*
X962641Y-116112D01*
X962108Y-114779D01*
X961041Y-114112D01*
X959974Y-114112D01*
X958908Y-114779D01*
X958374Y-116112D01*
G54D10*
X954641Y-124779D02*
X954641Y-124779D01*
G54D10*
X950908Y-118112D02*
X948241Y-114112D01*
X948241Y-124779D01*
G54D10*
X941308Y-118779D02*
X941308Y-124779D01*
G54D10*
X941308Y-123446D02*
X941841Y-124512D01*
X942908Y-124779D01*
X943975Y-124512D01*
X944508Y-123446D01*
X944508Y-118779D01*
G54D11*
X84000Y-514000D02*
X84000Y-526000D01*
X59000Y-526000D01*
X59000Y-514000D01*
X84000Y-514000D01*
G54D11*
X905000Y-73500D02*
X905000Y-61500D01*
X930000Y-61500D01*
X930000Y-73500D01*
X905000Y-73500D01*
G54D11*
X931500Y-87000D02*
X943500Y-87000D01*
X943500Y-112000D01*
X931500Y-112000D01*
X931500Y-87000D01*
G54D11*
X194866Y-521819D02*
X164306Y-521819D01*
X160734Y-525391D01*
G54D11*
X918500Y-87000D02*
X930500Y-87000D01*
X930500Y-112000D01*
X918500Y-112000D01*
X918500Y-87000D01*
G54D11*
X905000Y-60500D02*
X905000Y-48500D01*
X930000Y-48500D01*
X930000Y-60500D01*
X905000Y-60500D01*
G54D11*
X736000Y-27000D02*
X736000Y-39000D01*
X711000Y-39000D01*
X711000Y-27000D01*
X736000Y-27000D01*
G54D11*
X699500Y-30500D02*
X699500Y-42500D01*
X674500Y-42500D01*
X674500Y-30500D01*
X699500Y-30500D01*
G54D11*
X939000Y-229000D02*
X927000Y-229000D01*
X927000Y-204000D01*
X939000Y-204000D01*
X939000Y-229000D01*
G54D11*
X948000Y-246000D02*
X960000Y-246000D01*
X960000Y-271000D01*
X948000Y-271000D01*
X948000Y-246000D01*
G54D17*
X939563Y-223412D02*
X972900Y-223412D01*
X972900Y-202775D01*
X939563Y-202775D01*
X939563Y-223412D01*
G54D18*
X939928Y-188096D02*
X939928Y-188096D01*
G54D17*
X939578Y-208846D02*
X942578Y-208846D01*
X942578Y-216846D01*
X939578Y-216846D01*
G54D11*
X947000Y-271000D02*
X935000Y-271000D01*
X935000Y-245999D01*
X947000Y-246000D01*
X947000Y-271000D01*
G54D10*
X932962Y-270974D02*
X928696Y-270974D01*
X929229Y-272307D01*
X930296Y-274307D01*
X931362Y-276974D01*
X931896Y-278974D01*
X931896Y-281641D01*
G54D10*
X922296Y-276307D02*
X923362Y-276307D01*
X924429Y-275641D01*
X924962Y-274307D01*
X924962Y-272974D01*
X924429Y-271641D01*
X923362Y-270974D01*
X922296Y-270974D01*
X921229Y-271641D01*
X920696Y-272974D01*
X920696Y-274307D01*
X921229Y-275641D01*
X922296Y-276307D01*
X921229Y-276974D01*
X920696Y-278307D01*
X920696Y-279641D01*
X921229Y-280974D01*
X922296Y-281641D01*
X923362Y-281641D01*
X924429Y-280974D01*
X924962Y-279641D01*
X924962Y-278307D01*
X924429Y-276974D01*
X923362Y-276307D01*
G54D10*
X916962Y-270974D02*
X912696Y-270974D01*
X913229Y-272307D01*
X914296Y-274307D01*
X915362Y-276974D01*
X915896Y-278974D01*
X915896Y-281641D01*
G54D10*
X943196Y-360391D02*
X947462Y-360391D01*
X947462Y-359724D01*
X946929Y-358391D01*
X943729Y-354391D01*
X943196Y-353057D01*
X943196Y-351724D01*
X943729Y-350391D01*
X944796Y-349724D01*
X945862Y-349724D01*
X946929Y-350391D01*
X947462Y-351724D01*
G54D10*
X936796Y-355057D02*
X937862Y-355057D01*
X938929Y-354391D01*
X939462Y-353057D01*
X939462Y-351724D01*
X938929Y-350391D01*
X937862Y-349724D01*
X936796Y-349724D01*
X935729Y-350391D01*
X935196Y-351724D01*
X935196Y-353057D01*
X935729Y-354391D01*
X936796Y-355057D01*
X935729Y-355724D01*
X935196Y-357057D01*
X935196Y-358391D01*
X935729Y-359724D01*
X936796Y-360391D01*
X937862Y-360391D01*
X938929Y-359724D01*
X939462Y-358391D01*
X939462Y-357057D01*
X938929Y-355724D01*
X937862Y-355057D01*
G54D10*
X931462Y-349724D02*
X927196Y-349724D01*
X927729Y-351057D01*
X928796Y-353057D01*
X929862Y-355724D01*
X930396Y-357724D01*
X930396Y-360391D01*
G54D11*
X958000Y-362000D02*
X958000Y-374000D01*
X933000Y-374000D01*
X933001Y-362000D01*
X958000Y-362000D01*
G54D17*
X944562Y-336912D02*
X977899Y-336912D01*
X977899Y-316275D01*
X944562Y-316275D01*
X944562Y-336912D01*
G54D19*
X944927Y-301596D02*
X944927Y-301596D01*
G54D17*
X944577Y-322346D02*
X947577Y-322346D01*
X947577Y-330346D01*
X944577Y-330346D01*
G54D11*
X972000Y-397999D02*
X960000Y-397999D01*
X960000Y-372999D01*
X972000Y-372999D01*
X972000Y-397999D01*
G54D10*
X976462Y-401724D02*
X972196Y-401724D01*
X972729Y-403057D01*
X973796Y-405057D01*
X974862Y-407724D01*
X975396Y-409724D01*
X975396Y-412391D01*
G54D10*
X965796Y-407057D02*
X966862Y-407057D01*
X967929Y-406391D01*
X968462Y-405057D01*
X968462Y-403724D01*
X967929Y-402391D01*
X966862Y-401724D01*
X965796Y-401724D01*
X964729Y-402391D01*
X964196Y-403724D01*
X964196Y-405057D01*
X964729Y-406391D01*
X965796Y-407057D01*
X964729Y-407724D01*
X964196Y-409057D01*
X964196Y-410391D01*
X964729Y-411724D01*
X965796Y-412391D01*
X966862Y-412391D01*
X967929Y-411724D01*
X968462Y-410391D01*
X968462Y-409057D01*
X967929Y-407724D01*
X966862Y-407057D01*
G54D10*
X960462Y-401724D02*
X956196Y-401724D01*
X956729Y-403057D01*
X957796Y-405057D01*
X958862Y-407724D01*
X959396Y-409724D01*
X959396Y-412391D01*
G54D11*
X961000Y-233000D02*
X961000Y-245000D01*
X936000Y-245000D01*
X936000Y-233000D01*
X961000Y-233000D01*
G54D11*
X984000Y-225000D02*
X972000Y-225000D01*
X972000Y-200000D01*
X984000Y-200000D01*
X984000Y-225000D01*
G54D11*
X972000Y-371500D02*
X960000Y-371500D01*
X960000Y-346500D01*
X972000Y-346500D01*
X972000Y-371500D01*
G54D11*
X944000Y-342500D02*
X932000Y-342500D01*
X932000Y-317500D01*
X944000Y-317500D01*
X944000Y-342500D01*
G54D11*
X988500Y-338250D02*
X976500Y-338250D01*
X976500Y-313250D01*
X988500Y-313250D01*
X988500Y-338250D01*
G54D10*
X983903Y-357605D02*
X981236Y-353605D01*
X981236Y-364272D01*
G54D10*
X977503Y-364272D02*
X977503Y-358272D01*
G54D10*
X977503Y-359605D02*
X976970Y-358672D01*
X975903Y-358272D01*
X974836Y-358672D01*
X974303Y-359605D01*
X974303Y-364272D01*
G54D10*
X931403Y-239105D02*
X928736Y-235105D01*
X928736Y-245772D01*
G54D10*
X925003Y-245772D02*
X925003Y-239772D01*
G54D10*
X925003Y-241105D02*
X924470Y-240172D01*
X923403Y-239772D01*
X922336Y-240172D01*
X921803Y-241105D01*
X921803Y-245772D01*
G54D10*
X930403Y-327105D02*
X927736Y-323105D01*
X927736Y-333772D01*
G54D10*
X919736Y-325105D02*
X919736Y-331772D01*
X920270Y-333105D01*
X921336Y-333772D01*
X922403Y-333772D01*
X923470Y-333105D01*
X924003Y-331772D01*
X924003Y-325105D01*
X923470Y-323772D01*
X922403Y-323105D01*
X921336Y-323105D01*
X920270Y-323772D01*
X919736Y-325105D01*
G54D10*
X916003Y-333772D02*
X916003Y-327772D01*
G54D10*
X916003Y-329105D02*
X915470Y-328172D01*
X914403Y-327772D01*
X913336Y-328172D01*
X912803Y-329105D01*
X912803Y-333772D01*
G54D10*
X989403Y-301605D02*
X986736Y-297605D01*
X986736Y-308272D01*
G54D10*
X979803Y-302272D02*
X979803Y-308272D01*
G54D10*
X979803Y-306938D02*
X980336Y-308005D01*
X981403Y-308272D01*
X982470Y-308005D01*
X983003Y-306938D01*
X983003Y-302272D01*
G54D10*
X986903Y-190605D02*
X984236Y-186605D01*
X984236Y-197272D01*
G54D10*
X977303Y-191272D02*
X977303Y-197272D01*
G54D10*
X977303Y-195938D02*
X977836Y-197005D01*
X978903Y-197272D01*
X979970Y-197005D01*
X980503Y-195938D01*
X980503Y-191272D01*
G54D11*
X786500Y-462500D02*
X760500Y-462500D01*
X760500Y-412500D01*
X786500Y-412500D01*
X786500Y-462500D01*
G54D11*
X711500Y-462500D02*
X685500Y-462500D01*
X685500Y-412500D01*
X711500Y-412500D01*
X711500Y-462500D01*
G54D10*
X788360Y-137591D02*
X785694Y-133591D01*
X785694Y-144257D01*
G54D10*
X777694Y-135591D02*
X777694Y-142257D01*
X778227Y-143591D01*
X779294Y-144257D01*
X780360Y-144257D01*
X781427Y-143591D01*
X781960Y-142257D01*
X781960Y-135591D01*
X781427Y-134257D01*
X780360Y-133591D01*
X779294Y-133591D01*
X778227Y-134257D01*
X777694Y-135591D01*
G54D10*
X773960Y-144257D02*
X773960Y-138257D01*
G54D10*
X773960Y-139591D02*
X773427Y-138657D01*
X772360Y-138257D01*
X771294Y-138657D01*
X770760Y-139591D01*
X770760Y-144257D01*
G54D10*
X710361Y-137591D02*
X707694Y-133591D01*
X707694Y-144258D01*
G54D10*
X699694Y-135591D02*
X699694Y-142258D01*
X700227Y-143591D01*
X701294Y-144258D01*
X702361Y-144258D01*
X703427Y-143591D01*
X703961Y-142258D01*
X703961Y-135591D01*
X703427Y-134258D01*
X702361Y-133591D01*
X701294Y-133591D01*
X700227Y-134258D01*
X699694Y-135591D01*
G54D10*
X695961Y-144258D02*
X695961Y-138258D01*
G54D10*
X695961Y-139591D02*
X695427Y-138658D01*
X694361Y-138258D01*
X693294Y-138658D01*
X692761Y-139591D01*
X692761Y-144258D01*
G54D10*
X635361Y-137591D02*
X632694Y-133591D01*
X632694Y-144258D01*
G54D10*
X624694Y-135591D02*
X624694Y-142258D01*
X625227Y-143591D01*
X626294Y-144258D01*
X627361Y-144258D01*
X628427Y-143591D01*
X628961Y-142258D01*
X628961Y-135591D01*
X628427Y-134258D01*
X627361Y-133591D01*
X626294Y-133591D01*
X625227Y-134258D01*
X624694Y-135591D01*
G54D10*
X620961Y-144258D02*
X620961Y-138258D01*
G54D10*
X620961Y-139591D02*
X620427Y-138658D01*
X619361Y-138258D01*
X618294Y-138658D01*
X617761Y-139591D01*
X617761Y-144258D01*
G54D10*
X560361Y-137591D02*
X557694Y-133591D01*
X557694Y-144258D01*
G54D10*
X549694Y-135591D02*
X549694Y-142258D01*
X550227Y-143591D01*
X551294Y-144258D01*
X552361Y-144258D01*
X553427Y-143591D01*
X553961Y-142258D01*
X553961Y-135591D01*
X553427Y-134258D01*
X552361Y-133591D01*
X551294Y-133591D01*
X550227Y-134258D01*
X549694Y-135591D01*
G54D10*
X545961Y-144258D02*
X545961Y-138258D01*
G54D10*
X545961Y-139591D02*
X545427Y-138658D01*
X544361Y-138258D01*
X543294Y-138658D01*
X542761Y-139591D01*
X542761Y-144258D01*
G54D10*
X485860Y-137591D02*
X483194Y-133591D01*
X483194Y-144257D01*
G54D10*
X475194Y-135591D02*
X475194Y-142257D01*
X475727Y-143591D01*
X476794Y-144257D01*
X477860Y-144257D01*
X478927Y-143591D01*
X479460Y-142257D01*
X479460Y-135591D01*
X478927Y-134258D01*
X477860Y-133591D01*
X476794Y-133591D01*
X475727Y-134257D01*
X475194Y-135591D01*
G54D10*
X471460Y-144257D02*
X471460Y-138257D01*
G54D10*
X471460Y-139591D02*
X470927Y-138657D01*
X469860Y-138257D01*
X468794Y-138657D01*
X468260Y-139591D01*
X468260Y-144257D01*
G54D10*
X411360Y-137591D02*
X408694Y-133591D01*
X408694Y-144257D01*
G54D10*
X400694Y-135591D02*
X400694Y-142257D01*
X401227Y-143591D01*
X402294Y-144257D01*
X403360Y-144257D01*
X404427Y-143591D01*
X404960Y-142257D01*
X404960Y-135591D01*
X404427Y-134258D01*
X403360Y-133591D01*
X402294Y-133591D01*
X401227Y-134257D01*
X400694Y-135591D01*
G54D10*
X396960Y-144257D02*
X396960Y-138257D01*
G54D10*
X396960Y-139591D02*
X396427Y-138657D01*
X395360Y-138257D01*
X394294Y-138657D01*
X393760Y-139591D01*
X393760Y-144257D01*
G54D11*
X66000Y-579000D02*
X66000Y-591000D01*
X41000Y-591000D01*
X41000Y-579000D01*
X66000Y-579000D01*
G54D10*
X59731Y-566228D02*
X63998Y-566228D01*
X63998Y-570895D01*
X63464Y-570895D01*
X62398Y-570228D01*
X61331Y-570228D01*
X60264Y-570895D01*
X59731Y-572228D01*
X59731Y-574895D01*
X60264Y-576228D01*
X61331Y-576895D01*
X62398Y-576895D01*
X63464Y-576228D01*
X63998Y-574895D01*
G54D10*
X55998Y-576895D02*
X55998Y-566228D01*
G54D10*
X54398Y-572895D02*
X52798Y-576895D01*
G54D10*
X55998Y-574228D02*
X52798Y-570895D01*
G54D10*
X49065Y-570228D02*
X46398Y-566228D01*
X46398Y-576895D01*
M02*
