; Drill file
; Format: 2.4 (00.0000)
M48
INCH
T01C0.0157
T02C0.0236
T03C0.0276
T04C0.0315
T05C0.0354
T06C0.0394
T07C0.0433
T08C0.0453
T09C0.0472
T10C0.0512
%
G05
G90
T01
X001830Y-024280
X001830Y-023900
X002950Y-023030
X003680Y-021650
X004170Y-020570
X004510Y-020240
X004860Y-020570
X004860Y-019860
X004170Y-019860
X002810Y-020080
X002520Y-019570
X002600Y-018700
X001630Y-018700
X001560Y-019570
X001560Y-020540
X001850Y-021220
X002400Y-021220
X000630Y-020540
X000630Y-018610
X000710Y-016740
X000720Y-016260
X001340Y-015420
X002160Y-014610
X002670Y-014180
X002160Y-013820
X003220Y-013820
X003220Y-014610
X003410Y-015900
X003410Y-016250
X004000Y-016930
X004390Y-016500
X004330Y-017740
X005520Y-017590
X006080Y-017180
X006240Y-017790
X006630Y-017560
X006920Y-017770
X007800Y-017790
X008060Y-017530
X008470Y-017720
X008760Y-017420
X008940Y-017090
X008820Y-015750
X008760Y-015370
X008850Y-014950
X008940Y-014590
X009180Y-013930
X009040Y-013370
X008880Y-012960
X008360Y-012910
X008060Y-013160
X007220Y-013310
X007010Y-012310
X006300Y-012310
X005630Y-012310
X005670Y-011540
X006360Y-011540
X007050Y-011380
X007050Y-010930
X007330Y-010460
X007330Y-009910
X006030Y-009440
X006830Y-008580
X007340Y-008230
X008120Y-008230
X007810Y-007510
X007260Y-006140
X007680Y-005510
X007530Y-004640
X007960Y-004360
X007540Y-003600
X007540Y-002700
X008310Y-001950
X008900Y-001950
X009860Y-001950
X009860Y-002400
X009860Y-002870
X010370Y-001950
X010930Y-001950
X011500Y-003110
X012210Y-004620
X012880Y-006100
X012880Y-006880
X011300Y-006500
X010850Y-006500
X010310Y-006480
X010000Y-006160
X010670Y-007240
X010670Y-007720
X010670Y-009170
X010670Y-009760
X010670Y-010350
X010670Y-011930
X010670Y-012460
X010670Y-013070
X010670Y-013980
X010670Y-016460
X010670Y-018700
X009370Y-018650
X009370Y-019150
X009360Y-019680
X010450Y-020510
X010450Y-021940
X009740Y-023520
X009740Y-024020
X009720Y-024550
X008860Y-024550
X008880Y-024020
X008880Y-023520
X008010Y-023500
X008010Y-024000
X007990Y-024530
X007170Y-024570
X007170Y-023860
X007170Y-023230
X007800Y-022030
X007410Y-021140
X007420Y-020610
X007420Y-020110
X006650Y-020310
X006080Y-020080
X006770Y-019180
X005220Y-021320
X005630Y-023580
X005350Y-024270
X004760Y-024270
X004630Y-023560
X005980Y-024270
X005980Y-024960
X005350Y-024960
X007110Y-026000
X010000Y-026000
X010590Y-024570
X011610Y-023230
X013400Y-021940
X014170Y-023230
X013430Y-024570
X012280Y-025430
X014130Y-026000
X015870Y-024370
X016930Y-023270
X017830Y-024370
X016930Y-026000
X020100Y-026000
X020280Y-024370
X020120Y-023030
X019310Y-021940
X018620Y-020510
X018620Y-019650
X015670Y-019650
X015670Y-020510
X016350Y-021940
X012720Y-020510
X012720Y-019650
X007640Y-016630
X007630Y-016240
X007870Y-015870
X007340Y-015850
X007340Y-015490
X006650Y-015670
X006650Y-016400
X005580Y-015230
X005900Y-014590
X006730Y-014580
X004370Y-013860
X003410Y-012620
X003400Y-012240
X004060Y-012270
X002530Y-011710
X001930Y-011140
X002950Y-010880
X002780Y-010170
X003900Y-010170
X002490Y-007870
X002490Y-007360
X002490Y-006850
X002490Y-006370
X001740Y-006370
X001740Y-006850
X001740Y-007360
X001740Y-007870
X000990Y-007870
X000990Y-007360
X000990Y-006850
X000990Y-006370
X001070Y-009880
X000880Y-012120
X000880Y-012590
X005140Y-007660
X004710Y-007190
X006230Y-006880
X006220Y-006140
X006650Y-005040
X005640Y-004440
X005640Y-003030
X005490Y-001740
X006560Y-001740
X007280Y-000550
X008310Y-000550
X008900Y-000550
X009720Y-000550
X010370Y-000550
X010930Y-000550
X012170Y-000550
X015290Y-000660
X015290Y-002160
X015920Y-003180
X015170Y-004620
X015840Y-006100
X015840Y-006880
X018790Y-006880
X018790Y-006100
X018120Y-004630
X018360Y-003180
X017250Y-002160
X017250Y-000660
X019690Y-000660
X019690Y-002160
X020800Y-003180
X021080Y-004630
X021740Y-006100
X021740Y-006880
X024690Y-006920
X024690Y-006100
X024030Y-004620
X023240Y-003180
X022140Y-002300
X022140Y-000660
X024580Y-000660
X024580Y-002300
X025760Y-003180
X027100Y-002160
X027100Y-000660
X029540Y-000660
X029540Y-002160
X030400Y-003180
X029930Y-004650
X028200Y-003180
X026980Y-004650
X027650Y-006140
X027610Y-006920
X030560Y-006880
X032250Y-007080
X033280Y-006220
X034030Y-007310
X034560Y-007860
X034100Y-008590
X034570Y-009410
X033950Y-009950
X032450Y-009880
X032450Y-009230
X032450Y-008520
X032450Y-010570
X032450Y-011330
X032450Y-012040
X032450Y-013200
X032490Y-014270
X032570Y-014900
X033040Y-015390
X033870Y-014560
X034490Y-014020
X035390Y-014000
X035390Y-012460
X034480Y-012470
X033950Y-011920
X034030Y-013200
X035360Y-016090
X035940Y-016090
X034990Y-018080
X035000Y-018940
X033350Y-019650
X033350Y-020510
X031120Y-021940
X031020Y-023150
X030120Y-024370
X031040Y-026000
X028270Y-026000
X027680Y-024370
X028270Y-023110
X028160Y-021940
X027480Y-020510
X027480Y-019650
X024530Y-019650
X024530Y-020510
X025210Y-021940
X025510Y-023070
X025160Y-024370
X025530Y-026000
X022850Y-026000
X022720Y-024370
X022870Y-023070
X022260Y-021940
X021570Y-020510
X021570Y-019650
X030470Y-019650
X030470Y-020510
X036920Y-020290
X036920Y-019770
X036920Y-019260
X036920Y-018790
X037670Y-018790
X037670Y-019260
X037670Y-019770
X037670Y-020290
X038420Y-020290
X038420Y-019770
X038420Y-019260
X038420Y-018790
X039060Y-013860
X038500Y-009690
X038500Y-009130
X037410Y-007300
X036610Y-006650
X036610Y-006300
X037410Y-005660
X039000Y-006300
X039000Y-006650
X035470Y-007850
X035470Y-009390
X032890Y-004650
X033470Y-004130
X031740Y-002160
X031740Y-000660
X034400Y-001630
X036880Y-001630
X014060Y-003180
X010550Y-004620
X003750Y-003810
X003730Y-001720
X002870Y-000550
X004840Y-000550
X008010Y-011590
T02
X011740Y-019760
X011740Y-018500
X011740Y-017640
X011740Y-016770
X013740Y-016770
X013740Y-017640
X013740Y-018500
X014690Y-018500
X014690Y-017640
X014690Y-016770
X016690Y-016770
X016690Y-017640
X016690Y-018500
X017650Y-018500
X017650Y-017640
X017650Y-016770
X019650Y-016770
X019650Y-017640
X019650Y-018500
X020590Y-018500
X020590Y-017640
X020590Y-016770
X022590Y-016770
X022590Y-017640
X022590Y-018500
X023540Y-018500
X023540Y-017640
X023540Y-016770
X025540Y-016770
X025540Y-017640
X025540Y-018500
X026500Y-018500
X026500Y-017640
X026500Y-016770
X028500Y-016770
X028500Y-017640
X028500Y-018500
X029450Y-018500
X029450Y-017640
X029450Y-016770
X031450Y-016770
X031450Y-017640
X031450Y-018500
X032400Y-018500
X032400Y-017640
X032400Y-016770
X034400Y-016770
X034400Y-017640
X034400Y-018500
X034400Y-019760
X032400Y-019760
X031450Y-019760
X029450Y-019760
X028500Y-019760
X026500Y-019760
X025540Y-019760
X023540Y-019760
X022590Y-019760
X020590Y-019760
X019650Y-019760
X017650Y-019760
X016690Y-019760
X014690Y-019760
X013740Y-019760
X013890Y-009870
X013890Y-009000
X013890Y-008140
X014840Y-008140
X014840Y-009000
X014840Y-009870
X016840Y-009870
X016840Y-009000
X016840Y-008140
X017800Y-008140
X017800Y-009000
X017800Y-009870
X019800Y-009870
X019800Y-009000
X019800Y-008140
X020750Y-008140
X020750Y-009000
X020750Y-009870
X022750Y-009870
X022750Y-009000
X022750Y-008140
X023700Y-008140
X023700Y-009000
X023700Y-009870
X025700Y-009870
X025700Y-009000
X025700Y-008140
X026660Y-008140
X026660Y-009000
X026660Y-009870
X028660Y-009870
X028660Y-009000
X028660Y-008140
X029610Y-008140
X029610Y-009000
X029610Y-009870
X031610Y-009870
X031610Y-009000
X031610Y-008140
X031610Y-006880
X029610Y-006880
X028660Y-006880
X026660Y-006880
X025700Y-006880
X023700Y-006880
X022750Y-006880
X020750Y-006880
X019800Y-006880
X017800Y-006880
X016840Y-006880
X014840Y-006880
X013890Y-006880
X011890Y-006880
X011890Y-008140
X011890Y-009000
X011890Y-009870
T03
X001970Y-024690
X001970Y-022410
T04
X004800Y-011890
X004800Y-010900
X004800Y-009920
X004840Y-004390
X004840Y-003410
X004840Y-002420
X031180Y-015280
X036000Y-010300
T05
X004110Y-022640
X005120Y-022640
X006120Y-022640
X007130Y-022640
X003860Y-007570
X003860Y-006570
T06
X012360Y-023680
X011690Y-013830
X014050Y-012840
X014650Y-013830
X017010Y-012840
X017560Y-013830
X019920Y-012840
X020510Y-013830
X022870Y-012840
X023460Y-013830
X025830Y-012840
X026460Y-013830
X028820Y-012840
X029350Y-013830
X031710Y-012840
X032830Y-002540
X012360Y-002540
X001220Y-002600
X001220Y-004290
X032830Y-023680
T07
X035590Y-003390
X038350Y-003390
T08
X034800Y-004150
X035670Y-004460
X035000Y-002290
X037160Y-002290
X038500Y-002180
X038500Y-004470
T09
X034820Y-015220
X035710Y-017280
X037390Y-017300
X037240Y-015220
X037240Y-011280
X034820Y-011280
T10
X002200Y-004810
X002200Y-002050
M30
